<?xml version="1.0" encoding="UTF-8" standalone="no"?><!DOCTYPE svg PUBLIC "-//W3C//DTD SVG 1.1//EN" "http://www.w3.org/Graphics/SVG/1.1/DTD/svg11.dtd"><svg width="100%" height="100%" viewBox="0 0 135 68" version="1.1" xmlns="http://www.w3.org/2000/svg" xmlns:xlink="http://www.w3.org/1999/xlink" xml:space="preserve" style="fill-rule:evenodd;clip-rule:evenodd;stroke-linejoin:round;stroke-miterlimit:1.41421;"><g id="logo"><path d="M28.438,64.375c0.508,1.241 -2.653,3.604 -7.222,3.6c-4.562,0.004 -7.728,-2.359 -7.221,-3.6c4.694,1.525 9.75,1.525 14.443,0Zm2.34,-2.527c0.164,0.492 -0.143,1.034 -0.685,1.191c-5.799,1.682 -11.956,1.682 -17.752,0c-0.545,-0.157 -0.85,-0.699 -0.686,-1.191c0.164,-0.496 0.702,-0.755 1.207,-0.609c5.458,1.583 11.252,1.583 16.707,0.002c0.508,-0.148 1.046,0.111 1.209,0.607Zm66.798,-21.876c0.12,0 0.24,0.062 0.358,0.18c0,0 0.24,0 0.482,0.24c0.27,0.245 0.485,0.517 0.485,0.997c-0.215,0.484 0,1.234 0,1.689c0,0.485 0,1.237 -0.485,1.482c0,0.24 0,0.24 0.27,0.24c0.215,0.237 0.215,0.719 0.215,0.964c0,0.512 0.24,0.992 -0.215,1.475l0,0.244c0.215,0.268 0.215,0.753 0.215,0.965c-0.215,0.722 0,1.237 0,1.717c0,0.484 0,0.722 -0.215,1.237c0,0.724 0,1.206 0.215,1.959c0,0.452 0,0.934 -0.215,1.449c0,0.242 0,0.727 0.215,1.207l0,1.717c-0.215,0.274 -0.215,0.516 0,0.994l0,1.934c-0.215,0.478 -0.215,0.755 -0.727,0.992c-0.482,0 -0.967,0.485 -1.477,0c-0.242,-0.237 -0.242,-0.514 -0.482,-0.75c-0.242,-0.727 0,-1.477 0,-2.414l0,-8.805c0,-0.515 0.24,-0.997 0,-1.449l0,-2.717c-0.242,-0.959 0,-1.956 0,-2.896l0,-0.992c-0.242,-0.722 0,-0.994 0.482,-1.239c0.27,-0.24 0.51,-0.24 0.51,-0.24c0.122,-0.12 0.242,-0.18 0.365,-0.18l0.004,0Zm-51.194,17.039c0.21,0.208 0.21,0.453 0.21,0.723c0.243,0.666 0.785,0.966 1.482,0.966c0.692,0 1.204,-0.3 1.204,-0.966c0.238,-0.515 0.45,-1.025 0.45,-1.72c-0.212,-0.24 0,-0.24 0.275,-0.48l1.717,0c0.24,0.24 0.484,0.24 0.484,0.48l0,1.205c0,0.727 0,1.481 -0.484,1.934c-0.272,0.754 -0.752,1.207 -1.237,1.719c-0.755,0.72 -1.419,0.965 -2.409,0.965c-0.999,0 -1.692,-0.245 -2.174,-0.755c-1.239,-0.722 -1.989,-1.717 -1.989,-3.136l0,-3.438c-0.215,-1.687 0,-3.139 -0.215,-4.581c0,-0.969 0.215,-1.721 0,-2.446c0,-0.965 0.215,-1.927 0.215,-2.681c-0.215,-1.237 0,-2.414 0.75,-3.139c1.239,-1.689 3.863,-2.474 5.612,-0.964c0.21,0 0.45,0.21 0.45,0.452c0,0.24 0.245,0.24 0.245,0.512c0.992,0.725 1.236,1.659 1.236,2.654l0,0.722c0,0.727 -0.244,0.967 -0.966,1.179l-0.755,0c-0.48,0 -0.755,-0.212 -0.755,-0.662c-0.212,-0.517 -0.212,-0.969 -0.212,-1.541c-0.238,-0.45 -0.75,-0.935 -1.237,-0.935c-0.722,-0.18 -1.204,0 -1.444,0.722c-0.453,0.515 -0.453,1 -0.453,1.754l0,8.501c0,0.958 0.206,1.946 0.005,2.933l-0.005,0.023Zm20.845,-5.792c-0.245,-0.69 -0.245,-1.144 -0.245,-1.929l0,-0.964c0.245,-1.237 0,-2.262 0,-3.229l0,-3.194c0.245,-0.242 0.245,-0.784 0.245,-1.026c0,-0.725 0.512,-0.967 0.964,-0.967l5.4,0c1.02,0 1.507,0.514 1.507,1.209c0,1.05 -0.487,1.504 -1.177,1.504c-1.057,0.243 -1.749,0.243 -2.504,0c-0.512,0 -0.754,0.243 -0.996,0.515c-0.513,0.242 -0.718,0.452 -0.718,0.965l0,3.708c0,0.755 0.718,1.479 1.44,1.479c0.517,0 1.029,0 1.481,-0.27c0.513,0 0.967,0.512 1.297,0.512c0.21,0 0.21,0.24 0.21,0.24c0.243,0.513 0.48,1.237 0,1.694c-0.21,0.508 -0.54,0.75 -0.752,0.75l-2.236,0c-0.48,0 -1.235,0.24 -1.235,0.755c-0.205,0.754 -0.205,1.204 -0.205,1.931l0,1.507c0,0.48 0,0.992 0.205,1.509c0.245,0.688 1.235,0.995 1.989,0.688c0.727,0 1.482,0 2.234,0.307c0.48,0 0.752,0.21 0.752,0.664c0.215,0.3 0.215,0.753 0.215,1.053c0,0.452 -0.487,0.964 -0.967,0.964c-1.959,0.243 -3.978,0.243 -5.7,0.243c-0.996,0 -1.449,-0.513 -1.449,-1.507l0,-3.679c0.245,-0.454 0,-0.969 0,-1.749l0,-2.174c0.243,-0.507 0.005,-1.015 0.238,-1.497l0.007,-0.012Zm53.702,-11.309c1.016,0.004 1.493,0.517 1.493,1.209c0,1.05 -0.48,1.504 -1.174,1.504c-1.053,0.243 -1.749,0.243 -2.506,0c-0.508,0 -0.75,0.243 -0.993,0.515c-0.512,0.242 -0.724,0.452 -0.724,0.965l0,3.708c0,0.755 0.724,1.479 1.449,1.479c0.515,0 1.025,0 1.477,-0.27c0.512,0 0.967,0.512 1.297,0.512c0.207,0 0.207,0.24 0.207,0.24c0.245,0.513 0.487,1.237 0,1.694c-0.207,0.508 -0.537,0.75 -0.752,0.75l-2.229,0c-0.482,0 -1.237,0.24 -1.237,0.755c-0.212,0.754 -0.212,1.204 -0.212,1.931l0,1.507c0,0.48 0,0.992 0.212,1.509c0.238,0.688 1.237,0.995 1.989,0.688c0.725,0 1.477,0 2.229,0.307c0.487,0 0.757,0.21 0.757,0.664c0.21,0.3 0.21,0.753 0.21,1.053c0,0.452 -0.48,0.964 -0.967,0.964c-1.956,0.243 -3.98,0.243 -5.695,0.243c-0.997,0 -1.449,-0.513 -1.449,-1.507l0,-3.679c0.242,-0.454 0,-0.969 0,-1.749l0,-2.174c0.24,-0.507 0.005,-1.015 0.238,-1.497l0.004,-0.012c-0.242,-0.69 -0.242,-1.144 -0.242,-1.929l0,-0.964c0.242,-1.237 0,-2.262 0,-3.229l0,-3.194c0.242,-0.242 0.242,-0.784 0.242,-1.026c0,-0.725 0.513,-0.967 0.965,-0.967l5.411,0Zm7.59,21.744c-0.242,-0.272 -0.242,-0.272 -0.512,-0.272l-0.455,0c-0.78,-0.448 -1.264,-0.967 -1.539,-1.719c-0.205,-0.483 -0.72,-0.993 -0.45,-1.745c-0.27,-0.244 -0.27,-0.454 -0.27,-0.727c0,-0.242 -0.24,-0.752 0,-0.994c0.27,0 0.27,0 0.27,-0.208c0,-0.515 0.45,-0.515 0.725,-0.757c0.484,0 0.994,0 1.264,0.242c0.215,0.238 0.215,0.515 0.215,0.515c0,0.72 0.51,1.475 0.51,2.201l0,0.238c0.482,0.242 0.997,0.752 1.479,0.515l0.48,0c0.274,-0.273 0.514,-0.515 0.727,-0.753c0.27,-0.272 0.51,-0.516 0.51,-1.241c-0.24,-1.237 -0.51,-2.501 -1.237,-3.466c-0.48,-0.755 -1.207,-0.965 -1.477,-1.721c-0.482,0 -0.752,-0.51 -0.752,-0.72c-0.455,-0.273 -0.455,-0.51 -0.725,-1.03c-0.752,-0.51 -0.994,-1.236 -1.474,-1.986c-0.245,-0.453 -0.245,-1.207 -0.245,-1.722c0,-0.485 0,-0.997 -0.27,-1.744l0,-0.245c0.27,-0.482 0.27,-1.237 0.515,-1.692c0,-0.75 0.48,-1.262 0.964,-1.779c0.78,-0.722 1.747,-0.96 2.709,-0.96l0.755,0c0,0.238 0,0.238 0.274,0.238c0.723,-0.238 1.477,0 1.99,0.515c0.724,0.724 1.206,1.476 1.206,2.441c0.273,0.27 0.273,0.755 0.273,1.027l0,0.725c0,0.24 -0.273,0.477 -0.515,0.752c-0.51,0.237 -0.964,0 -1.477,0c-0.272,0 -0.272,-0.275 -0.272,-0.275c-0.242,-0.477 -0.482,-0.747 -0.242,-1.202l0,-0.272c-0.24,-0.243 -0.51,-0.755 -0.963,-0.997c0,-0.213 -0.274,-0.213 -0.274,-0.213c-0.48,0 -0.755,0 -0.755,-0.51c0,0 -0.207,0 0,0.238c0,0.272 0,0.272 -0.207,0.485c-0.997,0.512 -1.267,1.269 -0.997,1.994l0,0.24c0,0.237 -0.27,0.237 -0.27,0.237c0,0.512 0.27,0.997 0.512,1.512c0.24,0.482 0.51,0.754 0.755,1.207c0.207,0.267 0.482,0.75 0.722,1.024c0.754,0.452 0.967,0.962 1.477,1.719c0.514,0.273 0.757,0.723 1.237,0.993c0.514,0.966 0.754,1.721 0.996,2.686c0.513,1.264 0.273,2.501 0.273,3.47c0,1.262 -0.515,2.259 -1.269,3.016c-0.48,0.448 -1.237,0.448 -1.747,0.72l-0.727,0c-0.24,0.242 -0.48,0.242 -0.755,0l-0.962,0Zm-25.097,-21.65c0.512,0 0.722,0.24 0.966,0.723c0.24,0.724 0.24,1.506 0.485,2.471c0,1.029 0,2.022 0.24,3.258c0.3,1.477 0.782,2.984 0.782,4.431l0,0.785c0,0.724 0.243,1.206 0.243,1.991l0,0.242c0.24,0.243 0.24,0.513 0.24,0.513c0.244,0 0.244,-0.27 0.244,-0.513c0,-1.027 0.268,-1.991 0.515,-3.018c0,-0.722 0.235,-1.447 0.235,-2.199c0,-1.022 0.242,-1.992 0.542,-2.986c0.243,-0.995 0.243,-1.992 0.243,-2.984c0.242,-0.485 0.242,-1.267 0.452,-1.721c0,-0.753 0.482,-0.993 0.965,-0.993c0.512,-0.242 0.814,0 1.299,0c0.48,0.24 0.48,0.723 0.48,1.233c-0.24,0.754 -0.24,1.481 -0.48,2.236c0,0.507 -0.243,1.234 -0.243,1.747c-0.242,0.482 -0.242,0.966 -0.242,1.476c0,0.485 -0.302,0.97 -0.302,1.477c-0.24,1.267 -0.512,2.236 -0.512,3.259l0,0.24c-0.483,1.206 -0.483,2.476 -0.723,3.682c-0.242,0.78 -0.242,1.745 -0.452,2.772c0,0.514 -0.242,0.757 -0.242,1.239c-0.243,0.452 -0.243,0.692 -0.243,1.235c0,0.24 -0.3,0.754 -0.542,0.994c-0.75,0.485 -1.959,0.243 -2.259,-0.754c-0.24,-0.543 -0.485,-1.235 -0.24,-1.717c0,-0.24 0,-0.24 -0.245,-0.24l0,-0.757c-0.24,-0.51 -0.24,-1.027 -0.24,-1.262c0,-0.73 -0.454,-1.51 -0.244,-1.962c-0.21,-0.484 0,-0.997 -0.21,-1.509c-0.24,-0.515 -0.24,-0.752 -0.24,-1.237c0,-0.997 -0.272,-1.747 -0.512,-2.471l-0.243,-0.245c0.243,-0.752 -0.3,-1.507 -0.3,-2.259c0,-0.242 0,-0.485 -0.242,-0.725l0,-0.27c0.242,-0.484 0,-0.727 0,-1.206c-0.24,-0.753 -0.485,-1.27 -0.485,-2.022c0,-0.725 -0.24,-1.177 -0.24,-1.961c0,-0.753 0.485,-1.235 1.267,-0.993l0.483,0Zm-14.056,0.118c0.27,0 0.482,-0.238 0.755,-0.238c0.48,0 0.692,0.238 0.964,0.238c0.242,0 0.755,-0.238 0.997,-0.238c0.478,0 0.965,0.238 1.445,0.238c0.272,0.242 0.484,0.242 0.484,0.512c0.27,0.243 0.27,0.485 0.27,0.995c0,0.247 0,0.484 -0.27,0.722c-0.212,0.242 -0.484,0.485 -0.964,0.485c-0.487,0 -0.695,0.242 -1.207,0.242c-0.273,0.242 -0.513,0.485 -0.755,0.995l0,15.657c0,0.475 0,1.234 -0.272,1.714c-0.482,0.485 -1.447,0.485 -1.927,0c-0.482,-0.48 -0.215,-0.964 -0.215,-1.714c-0.267,-0.73 0,-1.754 -0.267,-2.719c0,-0.48 0,-0.967 0.267,-1.719c0,-0.24 0,-0.24 -0.267,-0.514c-0.273,-0.69 0,-1.177 0.267,-1.657l0,-0.27c-0.54,-0.485 0,-0.965 0,-1.719c-0.267,-0.213 -0.267,-0.695 -0.267,-1.177c0.267,-0.997 0,-1.719 0,-2.684c0,-0.275 0.267,-0.515 0.267,-0.995c-0.267,-0.757 -0.267,-1.476 -0.267,-2.203c0,-0.753 -0.483,-0.995 -1.272,-0.995c-0.48,0 -0.692,-0.242 -1.172,-0.242c-0.275,-0.243 -0.485,-0.485 -0.485,-0.723c-0.27,-0.752 0,-1.236 0.485,-1.991c0.208,-0.238 0.48,-0.238 0.692,-0.238l1.269,0c0.483,0.238 0.965,0 1.445,0.238Zm-5.85,4.828c0.24,0.722 0.24,1.204 0.45,1.956l0,0.995c0.27,1.421 0.512,2.686 0.782,3.861c0.243,1.479 0.727,3.196 0.965,4.647c0,0.752 0.242,1.265 0.485,1.991l0,0.24c0,0.213 0,0.725 0.272,0.965c0.21,0.755 0,1.235 -0.272,1.719c-0.243,0.24 -0.485,0.48 -0.723,0.48c-0.997,0 -1.719,-0.48 -1.959,-1.444c0,-0.755 0,-1.507 -0.244,-2.234c-0.483,-0.965 -0.995,-1.177 -1.99,-1.177c-0.724,0 -1.176,0.212 -1.689,0.937l0,0.24c0,0.274 0,0.274 -0.212,0.514c-0.27,0.213 0,0.725 0,1.203c0,0.274 -0.27,0.517 -0.27,0.727c-0.24,0.994 -1.449,1.234 -2.201,0.994c-0.243,-0.24 -0.485,-0.482 -0.485,-0.724c0,-0.723 0,-1.475 0.242,-2.2c0,-0.514 0.243,-0.966 0.243,-1.691c0.242,-0.54 0.242,-1.267 0.482,-1.991c0.27,-0.96 0,-2.44 0.48,-3.404c0.244,-0.727 0.514,-1.689 0.514,-2.444l0,-0.512c0.24,-0.967 0.485,-2.142 0.725,-3.139c0,-0.272 0,-0.722 0.27,-0.992l0,-0.724c0,-0.483 0,-1.237 0.212,-1.722c0.243,0 0.243,-0.24 0.243,-0.24c-0.243,-0.722 0.27,-1.449 0.994,-1.687c0.24,-0.272 0.452,-0.272 0.452,0c0.54,0 0.785,0 0.995,0.238c0.27,0 0.27,0.212 0.512,0.482c0,0.725 0.213,1.207 0.213,1.932c0,0.212 0,0.754 0.27,0.997c0.244,0.237 0.244,0.484 0.244,0.994l0,0.213Zm-24.617,-5.04c1.223,0.004 2.208,0.217 3.198,0.967c0.692,0.512 1.207,0.996 1.449,1.959c0.24,0.512 0.24,1.267 0.51,1.994l0,0.962c-0.27,0.272 -0.27,0.272 -0.27,0.484c0.27,0.27 0.27,0.513 0,0.753l0,0.722c-0.24,0.755 -0.482,1.751 -0.724,2.746l-0.273,0c-0.48,0.212 -0.48,0.695 -0.692,1.207c-0.272,0 -0.272,0.242 0,0.48c0.212,1.239 0.482,2.506 0.965,3.71c0,0.757 0.242,1.48 0.484,2.444c0.24,0.755 0.51,1.479 0.723,2.232c0.272,0.484 -0.213,0.994 -0.723,1.207c-0.757,0 -1.721,-0.213 -1.966,-1.207c-0.235,-0.273 -0.235,-0.753 -0.235,-0.965c0,-0.272 0,-0.512 -0.245,-0.512c-0.27,0 -0.27,-0.24 -0.27,-0.487c0,-0.48 -0.212,-0.99 -0.212,-1.232c-0.27,-0.723 -0.27,-1.24 -0.512,-1.72c-0.24,-0.27 -0.24,-0.482 -0.24,-0.752c0,-0.754 -0.243,-1.479 -0.725,-1.961c0,-0.273 -0.272,-0.483 -0.755,-0.483c-0.51,0 -0.51,0.21 -0.722,0.755c0,0.48 -0.272,0.72 0,1.202c0,0.487 -0.272,0.757 -0.272,0.969c0,0.993 0.272,1.75 0.272,2.742l0,0.727c-0.272,0.24 -0.272,0.752 0,1.232l0,0.485c-0.272,0.994 -0.754,1.476 -1.961,0.994c-0.273,0 -0.755,-0.51 -0.755,-0.994l0,-17.977c0.212,-0.242 0,-0.72 0,-1.204c0,-0.27 0,-0.752 0.212,-0.997c0.543,-0.27 0.755,-0.482 1.025,-0.482l2.714,0Zm-28.121,19.093c0.164,0.496 -0.143,1.034 -0.685,1.193c-5.799,1.68 -11.956,1.68 -17.752,-0.003c-0.545,-0.156 -0.85,-0.694 -0.686,-1.19c0.162,-0.492 0.702,-0.755 1.207,-0.609c5.458,1.583 11.252,1.583 16.709,0c0.506,-0.146 1.046,0.117 1.207,0.609Zm17.746,1.597l-0.245,0l0.245,0.272l0,-0.272Zm70.218,0.03c0,-0.3 0,-0.3 -0.268,-0.3l0,0.3c0,0 0,0.242 -0.24,0l-0.242,0c0.24,0 0.242,0.24 0.475,0.242l0.007,0l0.268,-0.242Zm-47.325,0c0,-0.3 0,-0.3 -0.274,-0.3l0,0.3c0,0 0,0.242 -0.238,0l-0.242,0c0.24,0 0.242,0.24 0.475,0.242l0.005,0l0.274,-0.242Zm34.716,-0.326c-0.233,0.296 0.005,0.296 0.005,0.296l0,-0.303l-0.005,0.007Zm-57.069,0.056l0,0.24l0.214,0l-0.214,-0.24Zm-1.715,-0.243c-0.274,0 -0.274,0.01 -0.274,0.243l0,0.24l0.302,-0.24l0,-0.243l-0.028,0Zm1.175,0l0,0.243c0.242,0 0.242,-0.243 0.242,-0.243l-0.242,0Zm0.992,0c0,0.243 0,0.243 0.212,0.243c0,-0.243 0,-0.243 -0.212,-0.243Zm67.267,-0.24l0.242,0.208c0,0 -0.242,0.245 0,0.245l0,-0.245c0,0 0,-0.208 -0.242,-0.208Zm-47.327,0l0.247,0.208c0,0 -0.247,0.245 0,0.245l0,-0.245c0,0 0,-0.208 -0.247,-0.208Zm-22.621,0.24c-0.243,0 -0.243,0 -0.243,-0.21l0,0.21l0.243,0Zm30.827,0l0,-0.274c0,0 -0.27,0 0,0.274Zm7.571,0l0.242,0l-0.242,-0.274l0,0.274Zm-29.53,-0.032l0.212,0c0,-0.268 0,-0.268 -0.212,-0.268l0,0.268Zm-7.629,-0.178c0,0 0,-0.272 -0.277,-0.272c0.277,0.272 0,0.272 0.277,0.272Zm82.676,-0.244l-0.24,0l0,0.244l0.24,0l0,-0.244Zm-12.758,-0.086l-0.243,0c0,-0.212 -0.274,-0.212 -0.274,0c0,0.3 0,0.3 0.274,0.3l0.243,-0.3Zm-47.329,0l-0.242,0c0,-0.212 -0.268,-0.212 -0.268,0c0,0.3 0,0.3 0.268,0.3l0.242,-0.3Zm7.723,0.266l0.24,0c-0.24,-0.238 -0.24,-0.238 -0.24,0Zm-16.077,-0.238c0,0.205 0,0.212 0.245,0.212l0.025,0c-0.253,0 -0.27,-0.187 -0.27,-0.21l0,-0.002Zm53.451,-0.24l0,0.212c0,0 0,0.296 0.293,0.007l0.007,-0.007l0,-0.212l-0.3,0Zm-47.026,0l-0.303,0l0,0.212c0,0 0,0.296 0.296,0.007l0.007,-0.007l0,-0.212Zm29.2,0.332c0.24,0 0,-0.27 0,-0.27l0,0.27Zm-52.034,-0.332c0,0 -0.272,0 -0.272,0.27l0.272,0l0,-0.27Zm27.237,0.212l0.242,0c0,-0.212 0,-0.212 -0.242,-0.212l0,0.212Zm47.326,0l0.24,0c0,-0.212 0,-0.212 -0.24,-0.212l0,0.212Zm-23.014,-0.15l0,-0.214c0,0 0,0.214 -0.242,0.214c0,0.27 0.242,0 0.242,0Zm-48.164,-0.157c-0.007,0 -0.007,0.026 -0.007,0.095l0.238,0c-0.157,0 -0.212,-0.095 -0.228,-0.095l-0.003,0Zm41.046,-0.057c0,-0.213 -0.21,-0.213 -0.21,-0.213l0,0.213l0.21,0Zm-43.956,-0.646c-0.131,0.004 -0.235,0.133 -0.235,0.133c0,0 -0.24,0 0,0.213l0,0.24c0,0 0.242,0 0.242,-0.24c-0.242,0 -0.242,0 -0.242,-0.213l0.452,0c-0.071,-0.099 -0.145,-0.133 -0.212,-0.133l-0.005,0Zm60.762,0.556c-0.247,-0.24 -0.515,-0.24 -0.515,0l0.515,0Zm9.376,-0.21l-0.243,0c0,0.21 0.243,0.21 0.243,0.21l0,-0.21Zm-47.325,0l-0.24,0c0,0.21 0.24,0.21 0.24,0.21l0,-0.21Zm-23.8,-0.967c0,-0.212 -0.215,0 -0.215,0l-0.302,0l0,0.208l0.302,0c0,0.246 -0.302,0.246 0,0.546l0,0.213l0.215,0l-0.215,-0.213l0,-0.546l0.215,-0.208Zm60.99,0.694l0,0.243l0.244,-0.243l0.268,0c0,-0.272 -0.268,-0.002 -0.268,0l-0.244,0Zm-43.799,-0.034l0,0.247c0.21,0 0.21,0 0.21,-0.247l-0.21,0Zm-5.752,0.009c0.083,0.016 0.083,0.072 0.083,0.238l0,-0.247c-0.033,0 -0.06,0.002 -0.083,0.009Zm40.622,-0.125c0,0 0,0.238 0.243,0.238l0,-0.238l-0.243,0Zm-7.118,-0.996l-0.21,0c-0.273,0.272 0,0.272 0,0.482l-0.485,0c-0.27,0.272 0,0.484 -0.27,0.752l0.27,0c0.212,0 0,-0.268 0,-0.48l0.212,0c0.273,0 0.273,-0.272 0.273,-0.272l0.21,0l0,-0.482Zm-33.504,1.121c-0.042,-0.009 -0.102,-0.009 -0.19,-0.009c0,0.219 0,0.051 0.19,0.009Zm-0.642,-0.009c0,-0.252 -0.238,-0.032 -0.268,-0.002l-0.002,0.002l0.27,0Zm70.855,-0.416l-0.268,0l0,0.238c0.266,0 0.268,0.238 0.505,0.005l0.005,-0.005c-0.242,0 -0.242,-0.235 -0.242,-0.238Zm-81.648,0.21c0.236,0.005 0.236,0.298 0.236,0l0.272,0c-0.272,-0.244 -0.272,0 -0.272,0l-0.24,0l0.004,0Zm39.668,-0.122c-0.044,0.002 -0.069,0.032 -0.069,0.122c0.24,0.238 0.242,0.005 0.477,0l0.007,0c-0.161,0 -0.32,-0.12 -0.413,-0.122l-0.002,0Zm-39.887,-0.117c0.005,0.239 0.215,0.239 0.215,0.239l-0.215,-0.246l0,0.007Zm5.795,-0.007l0,-0.208c-0.245,0 -0.245,0 -0.245,0.208c0,0 0,0.246 -0.24,0.246c0.485,0 0.485,0 0.485,-0.246Zm5.459,-0.058l0,-0.24l-0.242,0c0.125,0.138 0.185,0.205 0.242,0.24l0,0.03l0.104,0.106l-0.104,0.106l0.21,0l-0.106,-0.106l0.106,-0.106c-0.101,0 -0.154,0 -0.21,-0.03Zm5.153,0.03l0.245,0c0,0 0,-0.27 -0.245,0Zm23.168,-0.24l0.243,0c0,0 0,-0.212 -0.243,0Zm-63.555,-0.092c-3.725,0 -8.065,-0.623 -9.367,-2.015c-0.898,-0.962 -1.221,-3.302 -1.668,-6.537c-0.725,-5.229 -1.717,-12.39 -5.638,-17.36c-6.669,-8.455 -4.682,-18.087 0.245,-23.879c3.886,-4.569 9.939,-7.408 15.793,-7.408l0.215,0.003l0.2,-0.003c5.857,0 11.91,2.839 15.798,7.408c4.922,5.792 6.907,15.421 0.24,23.879c-3.914,4.961 -4.887,12.008 -5.6,17.154c-0.45,3.256 -0.776,5.608 -1.678,6.708c-1.514,1.851 -6.475,2.05 -8.54,2.05Zm62.773,-0.12c0,-0.273 0,0 -0.21,0l0.21,0Zm-22.386,-0.3c-0.235,0 0,0 0,0.242c0,-0.242 0.245,-0.242 0,-0.482l0,0.24Zm-5.153,0c-0.242,0 -0.242,0.242 -0.242,0.242l0.242,0l0,-0.242Zm49.951,0c-0.24,0.242 0,0.242 0,0.242l0,-0.242Zm0.512,0l-0.268,0l0.268,0.242l0,-0.242Zm0.302,0.133c-0.085,0.005 -0.141,0.109 -0.302,0.109l0.482,0c-0.078,-0.081 -0.131,-0.109 -0.175,-0.109l-0.005,0Zm-45.095,-0.133c0,0 0.212,0 0.212,-0.24c-0.212,0 -0.212,0 -0.212,0.24Zm35.352,-0.363c0.243,0.243 0.243,0.243 0.485,0l-0.485,0Zm-19.577,-0.041c0,0.191 -0.007,0.191 -0.21,0.191l0.21,0l0,-0.212l0,0.021Zm1.234,-0.561c-0.23,0.005 0.005,0.3 0.005,0.3l-0.485,0l0,0.24c0.245,0 0.245,0 0.245,-0.24c0,0.24 0.24,0.24 0.24,0.24l0,0.212c0.27,0 0.27,-0.212 0.27,-0.212c0.212,0 0.212,0 0.212,-0.24l-0.212,0l0,0.24c0,-0.24 0,-0.54 -0.27,-0.54l-0.005,0Zm27.516,0.455l-0.244,0l0,0.235c0.244,0 0.244,0 0.244,-0.235Zm-16.986,-0.33c0,0.03 -0.016,0.265 -0.27,0.265c0,0 0,0.208 -0.208,0.212l-0.004,0l0.482,0c0,0 0,-0.212 -0.27,-0.212c0.27,0 0.27,0 0.27,-0.268l0,0.003Zm-39.153,-0.067l0.24,0.242l0,0.302c0,-0.293 0,-0.302 0.221,-0.302l0.024,0l-0.245,0l0,-0.242l-0.24,0Zm11.342,0.184l0,0.21l0.272,0c-0.272,0 0,-0.21 -0.272,-0.21Zm16.291,-0.242l0,0.3l-0.244,0c0,0.24 0.244,0 0.244,0l0.27,0c0,0 -0.27,0 -0.27,-0.3Zm55.108,0.03l-0.27,0c0,0.002 0,0.27 0.27,0.27l0,-0.27Zm-49.258,0.27l0.27,0c0,0 0,-0.3 -0.27,-0.3l0,0.3Zm-61.087,-12.623c-0.51,0 -0.973,-0.219 -1.303,-0.618c-0.388,-0.468 -0.386,-1.031 -0.217,-1.567c-0.494,0.079 -1.009,-0.071 -1.399,-0.45c-0.632,-0.614 -0.902,-1.862 0.416,-3.355c0.63,-0.715 1.292,-1.175 1.825,-1.542c0.921,-0.641 1.177,-0.853 0.939,-1.511c-0.076,-0.208 -0.196,-0.332 -0.387,-0.402c-0.43,-0.152 -1.581,-0.154 -4.491,1.565c-2.176,1.283 -2.991,2.751 -3.005,5.416c-0.009,2.005 0.97,3.909 2.008,5.924c1.276,2.483 2.725,5.295 2.668,8.916c0.415,0.016 0.835,0.023 1.26,0.023c0.752,0 1.476,-0.025 2.157,-0.074c0.053,-1.423 0.275,-5.252 1.207,-7.377c0.33,-0.757 0.909,-1.715 1.523,-2.73c1.431,-2.368 3.344,-5.54 2.605,-7.248c-0.856,1.209 -2.427,2.686 -3.971,4.059c-0.196,0.175 -0.342,0.302 -0.408,0.369c-0.404,0.383 -0.923,0.602 -1.427,0.602Zm22.749,12.138l-0.24,0l-0.215,0.243c0.215,0 0.215,0 0.215,-0.243l0.002,0.005c0.025,0.025 0.238,0.224 0.238,-0.005Zm-21.38,0.109c2.254,-0.242 3.93,-0.752 4.474,-1.417c0.667,-0.815 1.004,-3.244 1.392,-6.057c0.734,-5.296 1.737,-12.549 5.87,-17.787c6.632,-8.416 4.032,-17.229 -0.21,-22.22c-3.646,-4.285 -9.318,-6.948 -14.801,-6.948l-0.2,0.002l-0.215,-0.002c-5.483,0 -11.153,2.663 -14.796,6.948c-4.246,4.991 -6.849,13.806 -0.213,22.22c4.14,5.247 5.16,12.611 5.903,17.99c0.369,2.656 0.716,5.164 1.329,5.822c0.695,0.743 3.219,1.338 6.261,1.532c0.044,-3.381 -1.285,-5.963 -2.573,-8.462c-1.087,-2.116 -2.116,-4.112 -2.105,-6.334c0.017,-2.949 0.951,-4.676 3.326,-6.113c-0.342,-0.815 -1.703,-4.105 -2.908,-7.687c-1.885,-5.603 -2.501,-9.235 -1.828,-10.79c0.199,-0.455 0.504,-0.762 0.907,-0.907c0.39,-0.143 0.803,-0.108 1.191,0.099c1.959,1.05 3.408,6.466 4.966,12.904c0.293,1.21 0.591,2.442 0.828,3.282c0.093,-0.815 0.18,-1.978 0.266,-3.116c0.51,-6.782 1.14,-12.996 3.26,-14.572c0.464,-0.344 0.974,-0.457 1.519,-0.335c0.441,0.097 0.796,0.365 1.057,0.792c1.442,2.367 -0.305,9.643 -2.066,16.296c0.01,-0.009 0.021,-0.018 0.033,-0.028c0.45,-0.378 0.962,-0.452 1.44,-0.21c0.877,0.444 1.437,1.934 1.387,2.723c-0.028,0.409 -0.222,0.866 -0.471,1.3c0.531,-0.067 1.038,0.11 1.421,0.514c0.432,0.45 0.679,1.149 0.646,1.823c-0.009,0.173 -0.06,0.365 -0.143,0.57c1.593,2.072 -0.59,5.688 -2.351,8.601c-0.598,0.99 -1.161,1.924 -1.47,2.626c-0.838,1.913 -1.066,5.487 -1.126,6.941Zm91.812,-0.136c0,0 0.21,-0.273 0,-0.273l-0.3,0.273l0,0.212c0.3,0 0.3,-0.212 0.3,-0.212Zm-47.326,0c0,0 0.214,-0.273 0,-0.273l-0.303,0.273l0,0.212c0.303,0 0.303,-0.212 0.303,-0.212Zm16.008,-0.026c-0.259,0.238 0.006,0.238 0.006,0.238l0,-0.245l-0.006,0.007Zm5.102,-0.367c-0.208,0.005 -0.208,0.24 -0.208,0.24c0,0.266 0,0.273 0.194,0.275l0.018,0l0,-0.515l-0.004,0Zm-28.499,0.33l0.235,-0.24l0.245,0.24l0,-0.24l-0.245,-0.24l-0.235,0l-0.245,-0.27l0,0.27c0,0 0,0.48 0.245,0.48c0,0.243 0,0.243 0.235,0l-0.235,0Zm71.365,0.063c0,-0.208 0,-0.208 -0.21,-0.208l0,0.208l0.21,0Zm-51.434,-0.24c-0.017,-0.148 -0.06,-0.275 -0.206,-0.275c0,0.245 0.169,0.27 0.206,0.275c0.006,0.067 0.006,0.141 0.006,0.207l0,-0.207c0,0 -0.002,0 -0.006,0Zm-0.446,0c0,-0.275 0,-0.515 -0.272,-0.275c-0.21,0.275 0.272,0.275 0.272,0.275Zm-24.915,-0.063l0,-0.004c0.005,-0.236 0.268,-0.236 0,-0.236l0,0.24Zm0.258,-0.106c-0.02,0.003 -0.08,0.106 -0.258,0.106l0.27,0c0,-0.08 0,-0.106 -0.009,-0.106l-0.003,0Zm33.463,-0.226l-0.27,0l0,0.242c0,-0.242 0.27,-0.242 0.27,-0.242c0.212,0 0.212,0 0.212,-0.27l-0.212,0.27Zm-20.902,-0.12l0,-0.27c-0.303,0 -0.303,0.27 -0.303,0.27l0.303,0Zm47.326,0l0,-0.27c-0.3,0 -0.3,0.27 -0.3,0.27l0.3,0Zm-59.875,-0.058l0.242,-0.212l-0.242,0l0,0.212Zm41.022,-0.092c0.242,-0.24 0,-0.24 0,-0.24l0,0.24Zm-51.819,-0.784c-0.213,0.302 -0.725,0.302 -0.727,0.747l0,0.005c0.21,-0.24 0.512,-0.24 0.727,-0.24l0,-0.512Zm34.205,0.45c-0.212,0 -0.212,0 -0.212,0.276l0.212,0l0,-0.276Zm53.117,0.274l0.244,0c-0.244,0 -0.244,-0.272 -0.244,0Zm-71.437,-0.062c0.007,0.002 0.014,0.002 0.021,0.002c0.014,0 0.032,0 0.051,0c-0.019,0 -0.037,0 -0.051,0l-0.012,0l-0.009,-0.002Zm-0.076,-0.005c0.007,0.003 0.014,0.003 0.023,0.003c0.009,0.002 0.023,0.002 0.035,0.002l0.009,0c-0.016,0 -0.032,0 -0.044,-0.002c-0.007,0 -0.011,0 -0.016,0l-0.007,-0.003Zm-0.085,-0.062c0.004,0.014 0.009,0.025 0.018,0.032l0,0.003c0.014,0.013 0.035,0.023 0.065,0.027c-0.03,-0.004 -0.051,-0.014 -0.065,-0.027l0,-0.003c-0.009,-0.009 -0.014,-0.021 -0.018,-0.034l0,0.002Zm44.783,-0.201l-0.24,0c0,0 0,0.24 0.24,0.24l0,-0.24Zm-44.79,0.162c0.002,0.011 0.002,0.023 0.004,0.032l0,-0.005c-0.002,-0.004 -0.002,-0.011 -0.004,-0.02l0,-0.007Zm-0.005,-0.139c0,0.051 0,0.09 0.003,0.123c-0.003,-0.026 -0.003,-0.06 -0.003,-0.1l0,-0.023Zm71.4,-0.203l-0.27,0l0,0.238c0.27,0 0.27,0 0.27,-0.238Zm-52.353,0.042c0.201,0.194 0.212,0.194 0.411,0.194c-0.206,-0.229 -0.21,-0.236 -0.429,-0.236l-0.023,0l0.041,0.042Zm3.628,-0.286c0.191,0 0.191,-0.007 0.191,-0.21c0,0.196 -0.184,0.207 -0.207,0.21l-0.003,0c0,-0.208 -0.237,-0.005 -0.48,0l-0.004,0c0.244,0 0.244,0.244 0.484,0.244l0,-0.244l0.019,0Zm-23.157,-0.063l0,0.275l0.212,-0.275l-0.212,0Zm37.316,0.153c-0.242,-0.273 -0.242,-0.273 -0.485,-0.273c0,-0.24 0,-0.482 -0.482,-0.482c0.482,0.482 0.482,0.482 0,0.755c0.24,0.242 0.24,0 0.482,-0.273c0.243,0.273 0.243,0.515 0.485,0.273Zm-18.823,-0.3l0,0.21l0.27,0c0,-0.21 -0.27,-0.21 -0.27,-0.21Zm52.604,0.18c0.272,-0.213 0,-0.213 0,-0.213l0,0.213Zm-48.713,-0.18c0.27,0.21 0.27,0.21 0.27,0l-0.27,0Zm22.653,-0.12l-0.242,0l0,0.27c0,0 0.242,0 0.242,-0.27Zm-49.47,0c0,0.267 0,0.267 0.242,0.267l0,-0.267l-0.242,0Zm26.604,-0.15l0,0.27c0,-0.27 0,0 0.213,-0.27l-0.213,0Zm-1.719,-6.367l0,1.691c-0.24,1.025 -0.512,2.232 -0.722,3.439c0,0.48 0,0.722 0.482,0.99c0.24,0.517 0.692,0.517 0.992,0.247c0.455,-0.247 0.725,-0.515 0.725,-0.997c-0.27,-0.483 -0.27,-0.967 -0.27,-1.239c-0.21,-0.453 -0.21,-0.935 -0.21,-1.415l0,-0.272c-0.245,-0.753 -0.545,-1.722 -0.545,-2.444l-0.452,0Zm-13.331,6.302l0.212,0c0,0 0.24,0 0.48,0.242l0,-0.242c-0.24,0 -0.24,0 -0.48,-0.208l-0.212,0.208Zm47.537,-0.208l-0.21,0.208l0.21,0c0,0 0.242,0 0.484,0.242l0,-0.242c-0.242,0 -0.242,0 -0.484,-0.208Zm-25.155,0.088l0.21,0.275l0,-0.275c0,-0.212 0,-0.212 -0.21,-0.212l0,0.212Zm-11.25,0.185c-0.245,-0.247 -0.245,0 -0.245,0l0.245,0Zm-18.041,-0.065l0.27,0c0,-0.24 -0.27,-0.24 -0.27,-0.24l0,0.24Zm28.806,-0.6l-0.27,0c0,0.268 0,0.268 -0.212,0.48l0.212,0l0.27,-0.212l0,-0.268Zm7.571,-0.455l0,0.483c0.242,0 0.242,0.24 0.242,0.24l0,-0.24l-0.242,-0.238c0.242,0 0.485,0 0.242,-0.245l-0.242,0Zm-41.022,0.335l-0.27,0c0.27,0 0.512,0 0.512,0.21l0.21,0l0,-0.21c-0.21,-0.272 -0.452,-0.545 -0.722,-0.755c0,0.21 0,0.483 0.27,0.755Zm51.429,-0.065c-0.242,0.245 0,0.245 0,0.245c0,0 0.3,0 0.3,-0.245l-0.3,0Zm-28.503,-0.387c0,0.24 0,0.24 0.27,0.24c-0.27,0 -0.27,0.24 0,0.24c0,0.242 0,0 0.212,0l-0.212,0l0,-0.48l-0.27,0Zm29.046,0.542l0,0.007c0,-0.005 0,-0.009 -0.003,-0.014l0.003,0.007Zm-0.035,-0.129c0,0.002 0.002,0.002 0.002,0.004l0.003,0c0.018,0.019 0.025,0.051 0.027,0.102l0,-0.007c-0.002,-0.046 -0.011,-0.076 -0.027,-0.095l-0.003,0c0,-0.002 -0.002,-0.004 -0.004,-0.004l0.002,0Zm-24.156,-0.173c0,0 -0.21,0 0,0.24l0,-0.24Zm31.31,-0.03l0,0.242c0.242,0 0.242,0 0.242,-0.242l-0.242,0Zm-47.085,0l-0.24,0l0,0.242c0.24,0 0.24,0 0.24,-0.242Zm39.92,0.196c0.002,0 0.004,0.002 0.004,0.004c0,-0.002 -0.002,-0.002 -0.002,-0.004l-0.002,0Zm-0.116,-0.019c0.028,0 0.053,0.003 0.072,0.005c0.016,0.002 0.027,0.007 0.039,0.012c0,0 0.002,0 0.002,0.002c0,-0.002 -0.002,-0.002 -0.002,-0.002c-0.012,-0.005 -0.023,-0.01 -0.039,-0.012c-0.016,-0.002 -0.039,-0.005 -0.063,-0.005l-0.009,0Zm-0.018,0c0.007,0 0.011,0 0.016,0l-0.007,0l-0.009,0Zm-0.063,0c0.017,0 0.03,0 0.044,0l-0.02,0l-0.024,0Zm-17.793,-0.295c0.002,0.03 0.013,0.268 0.21,0.268c0,-0.254 -0.185,-0.27 -0.208,-0.27l-0.002,0l0,0.002Zm42.109,-0.125l-0.515,0l0,0.243l0.515,0l0,-0.243Zm-35.023,0.15c0.242,0 0.242,0 0.242,-0.27c-0.242,0 -0.242,0 -0.242,0.27Zm-51.819,-0.057l0.24,0l0,-0.245l-0.24,0.245Zm63.011,-0.425l-0.242,0.245c0,0 0.242,0 0.242,-0.245Zm-18.278,0.212l0.21,0c0,-0.242 -0.21,-0.242 -0.21,-0.242l0,0.242Zm-11.495,-0.09l0.245,0c0,-0.242 0,-0.242 -0.245,-0.242l0,0.242Zm52.607,0c0,-0.274 -0.27,-0.274 -0.27,-0.274l0.27,0.274Zm-71.102,-0.696c0.055,-0.118 0.166,-0.118 -0.025,-0.118l-0.24,0c0,0.242 0,0 0.24,0c0,0.048 0.011,0.088 0.025,0.118c-0.014,0.032 -0.025,0.073 -0.025,0.124l0.242,0c-0.046,0.097 -0.083,0.176 -0.115,0.238l-0.367,0c0.196,0.221 0.233,0.263 0.367,0l0.115,0l0,-0.238l0.27,0.238l0,-0.238l-0.27,0c0,0 -0.155,0 -0.217,-0.124Zm37.318,0.535c0.139,-0.021 0.243,-0.074 0.243,-0.231c-0.238,0 -0.243,0 -0.243,0.231c-0.073,0.009 -0.156,0.009 -0.242,0.009l0.242,0l0,-0.009Zm-52.276,-0.259c0,0 -0.302,0 -0.302,0.208l0.302,-0.208Zm85.79,0.146c0,0 0.27,0 0.27,-0.24l-0.27,0.24Zm-71.822,-0.54c0.21,0 0.21,0.242 0.482,0.48c0,-0.236 -0.267,-0.476 -0.477,-0.48l-0.005,0Zm20.24,0.33l0,-0.272l-0.27,0.272l0.27,0Zm25.492,-0.602l-0.245,0.24l0,0.242c0.245,0 0.245,-0.242 0.245,-0.242l0,-0.24Zm25.123,-0.663l-0.24,0.273l0,0.21l0.24,0c0,0.223 0,0.237 -0.196,0.463l-0.044,0.047l0.24,0l0,-0.51c0,0 0.238,-0.208 0.004,-0.476l-0.004,-0.007Zm-32.325,0.39c-0.222,0 -0.215,0.007 0.021,0.243c-0.243,0 -0.243,0 -0.243,0.244l0.243,0l0,-0.244c-0.226,-0.229 -0.028,-0.243 -0.003,-0.243l0.003,0l-0.021,0Zm-40.491,0.033l-0.543,0l0,-0.213l-0.21,-0.27c0,0.27 0,0.27 0.21,0.27c0,0 -0.21,0 -0.21,0.213l0.21,0l0,0.272c0,-0.272 0.273,-0.272 0.273,-0.272c0,0 0,0.27 0.263,0.272l0.007,0l0,-0.272Zm26.576,0.11c0,0.005 0,0.007 0,0.007c0,0 0,-0.002 0,-0.007l0,-0.004l0,0.004Zm-0.002,-0.011l0.002,0.004l-0.002,-0.004l0,-0.007l0,0.007Zm-0.002,-0.019l0.002,0.003c-0.002,-0.003 -0.002,-0.005 -0.002,-0.007l0,0.004Zm-0.003,-0.016l0.003,0.005c-0.003,-0.003 -0.003,-0.007 -0.003,-0.009l0,0.004Zm-0.002,-0.016l0,0.005c0,-0.005 0,-0.007 0,-0.01l0,0.005Zm-0.005,-0.016c0,0.002 0.003,0.004 0.003,0.009l0,-0.002l-0.003,-0.007Zm-0.004,-0.019c0.002,0.005 0.002,0.01 0.004,0.014c-0.002,-0.004 -0.004,-0.011 -0.007,-0.018l0.003,0.004Zm-15.004,-0.196l-0.303,0c0,0.21 0,0.21 0.303,0.21l0,-0.21Zm47.026,0c0,0.21 0,0.21 0.3,0.21l0,-0.21l-0.3,0Zm-32.041,0.153c0.003,0.004 0.005,0.009 0.007,0.013c0.003,0.005 0.003,0.01 0.005,0.012l0.002,0.007l0.002,0.002l-0.002,-0.002l-0.002,-0.007c-0.002,-0.002 -0.002,-0.007 -0.005,-0.012c-0.002,-0.004 -0.004,-0.009 -0.007,-0.013Zm-23.101,-0.183c-0.27,0 -0.27,0.213 -0.27,0.213l0.27,0l0,-0.213l0.212,0c0,-0.27 -0.212,-0.27 -0.212,-0.27l0,0.27Zm23.078,0.146l0.003,0.002c0.002,0.002 0.004,0.007 0.004,0.009c0.005,0.005 0.009,0.012 0.012,0.019c0.002,0.002 0.002,0.002 0.004,0.004c-0.002,-0.002 -0.002,-0.002 -0.004,-0.004c-0.003,-0.007 -0.007,-0.014 -0.012,-0.019c0,-0.002 -0.002,-0.007 -0.004,-0.009l-0.003,-0.002l-0.002,-0.003l0.002,0.003Zm-38.523,0.007c0,0 0.215,0 0.215,-0.27l-0.215,0l0,0.27Zm38.431,-0.077c0.005,0.003 0.011,0.005 0.016,0.007c0.03,0.014 0.051,0.033 0.069,0.053l0.003,0.003l-0.003,0l0,-0.003c-0.018,-0.02 -0.039,-0.039 -0.069,-0.053c-0.005,-0.002 -0.009,-0.004 -0.014,-0.004l-0.002,-0.003Zm-0.023,-0.007c0.004,0 0.007,0.003 0.009,0.003l0.005,0.002c-0.003,-0.002 -0.005,-0.002 -0.01,-0.002l-0.004,-0.003Zm-0.023,-0.004c0.004,0 0.009,0.002 0.014,0.002l0.004,0.002c-0.004,-0.002 -0.009,-0.002 -0.014,-0.004l-0.004,0Zm-0.03,-0.002l0.016,0c-0.002,0 -0.005,0 -0.007,0l-0.005,0l-0.004,0c-0.003,0 -0.005,0 -0.007,0l0.007,0Zm31.748,-0.033l0.242,0c0,0 0,-0.24 -0.242,-0.24l0,0.24Zm-47.325,0l0.24,0c0,0 0,-0.24 -0.24,-0.24l0,0.24Zm-11.041,-0.297c0,0.03 0.016,0.265 0.263,0.267l0.007,0c0,-0.27 -0.27,-0.27 -0.27,-0.27l0,0.003Zm1.236,-0.003l-0.27,0c0,0.27 0,0.27 0.27,0.27l0,-0.27Zm50.253,-0.092l-0.242,0c-0.003,0 -0.243,0.002 -0.243,0.27l0.243,0c0,0 0.242,0 0.242,-0.27Zm-47.299,0.092c0.245,0.27 0.245,0 0.245,0c0,-0.212 0,-0.212 -0.245,-0.482l0,0.482Zm21.689,-0.122l0,0.24c0.213,0 0.213,0 0.213,-0.24l-0.213,0Zm34.598,-0.302c0.026,0 0.056,0 0.088,0l0,0.484c0,0 0.274,-0.24 0,-0.484c-0.03,0 -0.056,0 -0.079,0l-0.009,0Zm-47.479,0.484c0,-0.24 0,-0.24 -0.205,0l0.205,0Zm47.329,0c0,-0.24 0,-0.24 -0.212,0l0.212,0Zm-47.197,-0.484l0.113,0l0,0.484c0.002,-0.002 0.268,-0.24 0,-0.484c-0.039,0 -0.072,0 -0.099,0l-0.007,0l-0.007,0Zm-10.405,0.424c-0.005,0 -0.009,0 -0.012,0c0.003,0 0.007,0 0.012,0Zm0.034,-0.002c-0.006,0 -0.016,0 -0.025,0.002l-0.005,0l-0.004,0l0.009,0c0.007,-0.002 0.014,-0.002 0.021,-0.002l0.004,0Zm0.125,-0.053c-0.002,0 -0.002,0 -0.002,0.002c-0.009,0.007 -0.019,0.014 -0.03,0.021l-0.003,0c-0.002,0.002 -0.002,0.002 -0.004,0.002l-0.002,0.003c-0.003,0 -0.005,0.002 -0.007,0.002c-0.01,0.005 -0.017,0.009 -0.026,0.011c-0.004,0 -0.007,0.003 -0.009,0.003c-0.005,0.002 -0.012,0.002 -0.016,0.004c-0.005,0 -0.012,0.003 -0.016,0.003l0.004,0c0.005,-0.003 0.007,-0.003 0.012,-0.003l0.002,-0.002c0.005,0 0.009,0 0.014,-0.002c0.002,0 0.005,-0.003 0.009,-0.003l0.003,-0.002c0.009,-0.002 0.016,-0.004 0.023,-0.009l0.004,0l0.003,-0.002l0.002,-0.003c0.002,0 0.002,0 0.004,-0.002l0.003,0c0.011,-0.007 0.021,-0.014 0.03,-0.021l0.002,-0.002Zm0.032,-0.037c-0.007,0.009 -0.011,0.016 -0.018,0.023l-0.002,0.002c-0.003,0.003 -0.005,0.005 -0.007,0.007l-0.003,0.003c0,-0.003 0.003,-0.003 0.003,-0.003c0.002,-0.002 0.004,-0.004 0.007,-0.007l0.002,-0.002c0.005,-0.007 0.011,-0.014 0.016,-0.021l0.002,-0.002Zm0.003,-0.005l0,0.003c0,-0.003 0.002,-0.005 0.002,-0.007l-0.002,0.004Zm0.025,-0.053c-0.005,0.01 -0.007,0.019 -0.011,0.03l-0.003,0.005l-0.002,0.005c0,-0.005 0.002,-0.007 0.005,-0.01c0.004,-0.011 0.006,-0.02 0.011,-0.03Zm0.005,-0.018c-0.003,0.007 -0.003,0.011 -0.005,0.018l0,-0.004c0.002,-0.005 0.002,-0.01 0.005,-0.014Zm69.415,-0.286c-0.245,0 -0.245,0.277 0,0.277l0,-0.277Zm-69.411,0.258c0.003,-0.009 0.003,-0.016 0.003,-0.016c0,0 0,0.007 -0.003,0.016Zm-3.226,-0.016l0,-0.27c0,0 0,0.27 -0.21,0.27l0.21,0Zm-11.249,-0.57c-0.215,0 -0.215,0.238 -0.215,0.238l0,0.27c0.215,0 0.215,-0.27 0.215,-0.27l0,-0.238Zm59,0c0.176,0 0.351,0.125 0.434,0.288c-0.046,0.047 -0.104,0.104 -0.194,0.194l0.245,0c0,-0.067 -0.018,-0.134 -0.051,-0.194c0.083,-0.083 0.139,-0.138 0.291,-0.288l-0.725,0Zm13.361,0.148l0.243,0.21l0,-0.21l-0.243,0Zm-47.086,0l-0.242,0l0.242,0.21l0,-0.21Zm46.586,0.159c0.002,0.005 0.004,0.007 0.007,0.009l0,0.005c0.002,0 0.002,0.002 0.004,0.004c0.003,0.003 0.007,0.007 0.009,0.01c0.005,0.002 0.01,0.004 0.012,0.007c0.016,0.006 0.035,0.011 0.06,0.013l0.005,0c0.007,0 0.013,0.003 0.023,0.003l0.011,0c-0.004,0 -0.009,0 -0.011,0c-0.01,0 -0.016,-0.003 -0.023,-0.003l-0.003,0l-0.002,0c-0.025,-0.002 -0.044,-0.007 -0.06,-0.013c-0.002,-0.003 -0.007,-0.005 -0.012,-0.007c-0.002,-0.003 -0.006,-0.007 -0.009,-0.01c-0.002,-0.002 -0.002,-0.004 -0.004,-0.004l0,-0.003l0,-0.002c-0.003,-0.002 -0.005,-0.004 -0.007,-0.009Zm-47.295,0.035c0.014,0.006 0.035,0.011 0.06,0.013l0.019,0c-0.005,0 -0.009,0 -0.012,0l-0.002,0l-0.005,0c-0.025,-0.002 -0.043,-0.007 -0.057,-0.013l-0.003,0Zm-0.009,-0.005l0.003,0l0.002,0.002l-0.002,-0.002c0,0 -0.003,0 -0.005,-0.002l0.002,0.002Zm-0.011,-0.012l0.009,0.01c-0.005,-0.003 -0.007,-0.005 -0.009,-0.01Zm58.825,-0.24c-0.24,0 -0.24,0.243 -0.24,0.243l0.24,0l0,-0.243Zm-58.837,0.22c0.002,0.007 0.005,0.011 0.009,0.018c-0.004,-0.005 -0.007,-0.011 -0.011,-0.021l0.002,0.003Zm47.32,-0.035c0,0.012 0.002,0.023 0.007,0.032l-0.003,-0.002c-0.002,-0.007 -0.004,-0.018 -0.004,-0.03Zm-47.324,0.021c0,0.002 0,0.007 0.002,0.009l0,-0.002c-0.002,-0.003 -0.002,-0.005 -0.002,-0.007Zm-0.003,-0.005l0,0.002l0,-0.002l0,-0.007l0,0.007Zm-0.002,-0.011l0.002,0.004c-0.002,-0.002 -0.002,-0.007 -0.002,-0.009l0,0.005Zm-0.002,-0.017c0.002,0.005 0.002,0.007 0.002,0.012l0,-0.007l-0.002,-0.005Zm47.326,-0.034c0,0.009 0.002,0.016 0.002,0.023l0,0.009l0,-0.004l0,-0.005c0,-0.009 -0.002,-0.019 -0.002,-0.03l0,0.007Zm-47.326,0.028l0,0.004l0,-0.004l0,-0.007l0,0.007Zm47.326,-0.051c0,0.007 0,0.011 0,0.016c0,-0.009 0,-0.021 0,-0.032l0,0.016Zm-47.326,0.007c-0.003,-0.019 -0.003,-0.037 -0.003,-0.06c0,0.023 0,0.041 0.003,0.06Zm8.96,-0.06l0.24,0l0,-0.21c-0.24,0 -0.24,0.21 -0.24,0.21Zm3.918,-0.21l0,0.21l0.213,0c-0.213,0 -0.213,-0.21 -0.213,-0.21Zm7.059,-0.18l-0.212,0c0.212,0 0.212,0.27 0.212,0.27l0,-0.27Zm14.086,0.242l0.21,0c0,-0.242 -0.21,-0.242 -0.21,0Zm25.34,-0.425l-0.245,0c0,0.27 0.245,0.27 0.245,0.27l0.207,0c0,-0.267 -0.207,-0.27 -0.207,-0.27Zm0.408,0.15c-0.083,0.005 -0.201,0.12 -0.201,0.12l0.275,0c0,-0.09 -0.03,-0.12 -0.072,-0.12l-0.002,0Zm-25.294,0.033l0.24,0l-0.24,-0.245l0,0.245Zm-43.288,-5.37c-0.27,-1.479 -1.749,-1.722 -2.714,-1.237l-0.24,0c-0.27,0.485 -0.754,0.755 -0.482,1.237l0,0.722c0,0.27 -0.272,0.545 0,0.545c0.212,0.964 0,1.689 0,2.444l0,0.724c0.212,0.478 0.482,0.478 0.722,0.752c0.483,0.24 1.237,0.24 1.962,-0.274c0.482,-0.208 0.752,-0.722 0.997,-1.202l0,-1.962c0,-0.482 -0.245,-1.234 -0.245,-1.749Zm-16.439,5.125c-0.27,0 0,0 0,0.212l0,-0.212Zm83.346,-0.178c0.27,0 0.27,0 0,-0.212l0,0.212Zm-71.822,-0.034c0,0 0.242,0 0.242,-0.208c0.21,0 0,-0.27 0,-0.27c-0.242,0 -0.242,0.27 -0.242,0.27l0,0.208Zm-11.524,-0.026l0.21,0l0,-0.244c0,0 -0.21,0 -0.21,0.244Zm63.948,-0.244l0,0.244l0.242,0l-0.242,-0.244Zm-19.231,0.164c-0.007,0.02 -0.012,0.043 -0.012,0.069l0,0.004c0,-0.025 0.002,-0.048 0.009,-0.069l0.003,-0.004Zm0.002,-0.014c0,0.004 0,0.007 -0.002,0.009l0.002,-0.005l0,-0.004Zm0.004,-0.007l0,0.002c0,-0.002 0,-0.004 0.003,-0.007l-0.003,0.005Zm0.007,-0.016l0,0.002c0,0 0.003,-0.002 0.003,-0.005l-0.003,0.003Zm0.01,-0.014c-0.003,0.002 -0.003,0.004 -0.005,0.007c0.002,-0.003 0.002,-0.005 0.005,-0.007Zm0.094,-0.079l-0.004,0l0,0.003c-0.033,0.016 -0.065,0.039 -0.088,0.071c0.023,-0.032 0.055,-0.055 0.088,-0.071c0,-0.003 0.002,-0.003 0.004,-0.003l0.005,-0.004l-0.005,0.004Zm0.056,-0.02c-0.005,0 -0.007,0.002 -0.012,0.002c-0.012,0.005 -0.025,0.009 -0.037,0.014c0.012,-0.005 0.025,-0.009 0.037,-0.014c0.002,0 0.005,0 0.005,-0.002l0.007,0Zm0.06,-0.012c-0.003,0 -0.005,0 -0.007,0l-0.005,0.002c0.002,-0.002 0.007,-0.002 0.009,-0.002l0.003,0Zm0.013,-0.002c0.01,0 0.012,0 0.012,0c0,0 -0.002,0 -0.012,0Zm-10.031,-0.36l-0.212,0.27l0.212,0l0,-0.27Zm49.166,-0.06l-0.24,0c0.002,0.238 0.24,0.238 0.24,0Zm-49.648,0.06l0.27,0l0,-0.245c-0.27,0 -0.27,0 -0.27,0.245Zm3.678,0c0,-0.245 0,-0.245 -0.242,-0.245l0,0.245l0.242,0Zm33.274,-0.079c-0.003,0.014 -0.003,0.03 -0.003,0.047c0,-0.019 0.003,-0.035 0.005,-0.051l-0.002,0.004Zm-47.327,0.01c0,0.007 -0.002,0.013 -0.002,0.02l0,-0.004c0,-0.005 0.002,-0.007 0.002,-0.012l0,-0.004Zm0.002,-0.014c0,0.002 -0.002,0.004 -0.002,0.007l0,-0.003l0.002,-0.004Zm0.005,-0.028c0,0.005 -0.002,0.009 -0.002,0.014c0,-0.002 0,-0.007 0.002,-0.009l0,-0.005Zm47.324,0.014l0,-0.005l0,0.005Zm0.009,-0.035c-0.002,0.005 -0.004,0.01 -0.007,0.016l0.003,-0.004c0,-0.005 0.002,-0.009 0.004,-0.012Zm-47.328,0.003c0,0.002 0,0.004 0,0.007c0,-0.005 0,-0.007 0.002,-0.01l-0.002,0.003Zm47.333,-0.019c-0.002,0.005 -0.002,0.007 -0.005,0.012c0.003,-0.005 0.005,-0.01 0.007,-0.014l-0.002,0.002Zm-47.25,-0.09c-0.01,0.007 -0.021,0.014 -0.03,0.023l-0.003,0.003c-0.018,0.018 -0.034,0.041 -0.046,0.073c0.012,-0.032 0.028,-0.055 0.046,-0.073l0.003,-0.003c0.009,-0.007 0.018,-0.014 0.027,-0.021l0.003,-0.002Zm47.312,0.009c-0.023,0.019 -0.044,0.042 -0.06,0.077c0.016,-0.035 0.04,-0.06 0.063,-0.079l-0.003,0.002Zm11.409,-0.076l-0.27,0c0.27,0.243 0.27,0.003 0.27,0Zm-11.397,0.067c0,0.002 -0.002,0.002 -0.005,0.005l0.003,-0.003l0.002,-0.002Zm0.011,-0.004c-0.004,0 -0.007,0.002 -0.009,0.004l0.002,-0.002l0.007,-0.002Zm-47.245,-0.028c-0.01,0 -0.021,0.002 -0.035,0.007c-0.007,0.002 -0.016,0.007 -0.025,0.009c-0.007,0.002 -0.014,0.007 -0.021,0.012l0.004,-0.005c0.007,-0.002 0.012,-0.005 0.017,-0.007c0.009,-0.002 0.018,-0.007 0.025,-0.009c0.014,-0.005 0.025,-0.007 0.035,-0.007Zm47.264,0.016c-0.007,0.002 -0.012,0.007 -0.019,0.009c0.005,-0.002 0.01,-0.004 0.014,-0.007l0.005,-0.002Zm0.023,-0.009l-0.002,0.002l-0.003,0l-0.004,0.002c-0.003,0 -0.007,0.003 -0.012,0.005c0.005,-0.002 0.009,-0.005 0.012,-0.005c0.002,-0.002 0.004,-0.002 0.007,-0.002l0.002,-0.002Zm0.028,-0.007c-0.01,0.002 -0.017,0.004 -0.026,0.007c0.007,-0.003 0.014,-0.005 0.021,-0.005l0.005,-0.002Zm0.03,-0.002c-0.003,0 -0.005,0 -0.01,0l-0.004,0c-0.003,0 -0.005,0.002 -0.009,0.002c0,0 -0.003,0 -0.005,0l0.005,0c0.004,0 0.006,-0.002 0.009,-0.002l0.014,0Zm-47.532,-0.275l-0.303,0c0,0.275 0,0.275 0.303,0.275l0.214,0c-0.002,0 -0.009,0 -0.023,0l-0.002,0.002l0.002,-0.002c0.014,0 0.023,0 0.023,0c-0.214,0 -0.214,0 -0.214,-0.275Zm47.026,0c0,0.275 0,0.275 0.3,0.275l0.21,0l-0.002,0l0.002,0c-0.21,0 -0.21,0 -0.21,-0.275l-0.3,0Zm-26.394,-0.053l-0.212,0c0.212,0.238 0.212,0.238 0.212,0Zm-6.364,0.148l0,-0.245l-0.213,0c0.213,0 0.213,0.245 0.213,0.245Zm-3.409,-0.245l0,0.245l0.243,0c-0.243,0 -0.243,0 -0.243,-0.245Zm-10.859,-0.09c0,0 0,0.24 0.214,0.24l0,-0.24c0,-0.24 0,-0.24 -0.214,-0.24l0,0.24Zm47.326,0c0,0 0,0.24 0.21,0.24l0,-0.24c0,-0.24 0,-0.24 -0.21,-0.24l0,0.24Zm-59.633,0.215l0.21,0l-0.21,-0.275l0,0.275Zm41.265,-0.275c0,0 0.242,0 0.242,0.247l0,-0.247c0,-0.261 0,-0.268 -0.441,-0.268l-0.044,0l0.243,0.268Zm-52.821,-0.03c-0.21,0 -0.21,0.212 0,0.212c0.3,0 0.302,-0.207 0.512,-0.212l0.005,0l-0.517,0Zm83.406,0.065l-0.27,0c0,0.002 0.27,0.24 0.27,0Zm-48.896,-0.155c0,0 0,0.27 0.212,0l0,-0.238c-0.212,0 -0.212,0.238 -0.212,0.238Zm0.455,0c0.27,0 0.27,-0.238 0.27,-0.238l-0.27,0l0,0.238Zm2.231,-0.45l0,0.45c0,-0.238 0.21,-0.238 0.21,-0.238l0,-0.212l-0.21,0Zm0.718,0c-0.233,0.002 0.004,0.215 0.004,0.45l0,-0.45l-0.004,0Zm-26.6,0.09c0,0.272 0.242,0.272 0.242,0.272l0,-0.272l-0.242,0Zm-11.314,0.21l0,-0.21l-0.21,0.21l0.21,0Zm58.823,-0.785l-0.272,0c0,0.243 0.272,0.243 0.272,0.243l0,-0.243Zm-20.905,-0.027l-0.242,0c0,0 0,0.237 0.242,0Zm15.145,0.087c0,-0.24 0,-0.24 -0.242,-0.24c0,0 0,0.24 0.242,0.24Zm-52.546,0l0.24,0l0,-0.752c-0.24,0.212 -0.24,0.512 -0.24,0.752Zm34.205,-0.3l0,0.213c0,0 0,-0.213 0.243,-0.213l-0.243,0Zm1.939,0.118c-0.01,0.002 -0.01,0.025 -0.01,0.095l0.3,0c-0.198,0 -0.265,-0.093 -0.288,-0.095l-0.002,0Zm34.228,-0.009l0,0.011c0,0 0,-0.002 0,-0.007l0,-0.004Zm-47.329,0c0,0.004 0,0.007 0,0.009l0,-0.005l0,-0.004Zm-0.002,-0.019c0,0.005 0,0.007 0.002,0.012l-0.002,-0.007l0,-0.005Zm47.329,-0.002c0,0.002 0,0.005 0,0.007l0,-0.005l0,-0.002Zm-47.329,-0.005l0,0.007l0,-0.002l0,-0.005c0,-0.002 0,-0.002 -0.002,-0.004l0.002,0.004Zm47.324,-0.025c0,0.007 0.003,0.014 0.003,0.021l0,-0.005c0,-0.004 0,-0.007 -0.003,-0.011l0,-0.005Zm-47.326,0.009l0,0.007l0,-0.007l-0.002,-0.004l0.002,0.004Zm-23.561,-0.3c-0.203,0.293 0.005,0.293 0.005,0.293l0,-0.3l-0.005,0.007Zm70.874,0.243c0.004,0.013 0.009,0.027 0.011,0.039l0,0.004l0,-0.002l0,-0.002c-0.002,-0.012 -0.005,-0.021 -0.009,-0.032l-0.002,-0.007Zm-47.336,-0.019c0.002,0.005 0.004,0.009 0.007,0.014c0,0.005 0.002,0.009 0.002,0.012c0,-0.003 -0.002,-0.007 -0.002,-0.012c-0.003,-0.005 -0.005,-0.009 -0.007,-0.014Zm35.74,0.009l0.244,0c0,0 0,-0.27 -0.244,-0.27l0,0.27Zm-21.355,0l0.213,0c0,0 0,-0.302 -0.213,-0.302l0,0.302Zm32.941,-0.016c0,0.003 0.003,0.007 0.005,0.009l-0.002,-0.002l-0.003,-0.007Zm-47.338,-0.018c0.003,0.004 0.005,0.009 0.007,0.016c-0.002,-0.005 -0.002,-0.009 -0.004,-0.014l-0.003,-0.002Zm47.322,-0.012c0.002,0.005 0.007,0.012 0.009,0.019c-0.002,-0.005 -0.004,-0.012 -0.007,-0.016l-0.002,-0.003Zm-47.333,-0.007c0.002,0.003 0.002,0.003 0.004,0.005c-0.002,-0.002 -0.004,-0.005 -0.007,-0.009l0.003,0.004Zm47.326,-0.004l0.003,0.004l-0.003,-0.002c0,-0.002 0,-0.002 -0.002,-0.005l0.002,0.003Zm-47.354,-0.03c0.002,0.002 0.005,0.004 0.007,0.007c0.007,0.007 0.011,0.013 0.016,0.02c-0.005,-0.007 -0.009,-0.013 -0.016,-0.02c-0.002,-0.003 -0.002,-0.005 -0.005,-0.005l-0.002,-0.002Zm47.306,-0.021c0.004,0.002 0.009,0.007 0.014,0.011c0.009,0.01 0.018,0.019 0.027,0.03c-0.009,-0.011 -0.018,-0.02 -0.027,-0.03c-0.005,-0.004 -0.007,-0.006 -0.012,-0.009l-0.002,-0.002Zm-47.389,-0.032c0.005,0.002 0.011,0.004 0.016,0.007c0.002,0 0.005,0.002 0.007,0.002c0.002,0.002 0.005,0.002 0.007,0.002l0.002,0.002c0.005,0.003 0.007,0.005 0.012,0.007l0.002,0.003c0.005,0.002 0.007,0.004 0.012,0.007c0.004,0.004 0.011,0.009 0.016,0.013l0.004,0.003l0.003,0.002l-0.003,-0.002l-0.002,0l0,-0.003l-0.002,0c-0.005,-0.004 -0.012,-0.009 -0.016,-0.013c-0.005,-0.003 -0.007,-0.005 -0.012,-0.007l-0.002,-0.003c-0.005,-0.002 -0.007,-0.004 -0.012,-0.007l-0.002,-0.002c-0.002,0 -0.005,0 -0.007,-0.002c-0.002,0 -0.005,-0.002 -0.007,-0.002c-0.005,-0.003 -0.007,-0.003 -0.011,-0.005l-0.005,-0.002Zm47.377,0.025c0.005,0.002 0.007,0.002 0.009,0.005c-0.002,0 -0.002,-0.003 -0.004,-0.003l-0.005,-0.002Zm-0.108,-0.035c0.009,0 0.018,0 0.027,0.003c0.012,0.002 0.026,0.004 0.035,0.009c0.005,0 0.007,0.002 0.009,0.002l0.005,0.003c0,0 0.002,0.002 0.005,0.002l0.002,0.002l0.004,0c0.005,0.005 0.012,0.007 0.017,0.009c-0.005,-0.002 -0.012,-0.004 -0.017,-0.009l-0.004,0l-0.002,-0.002c-0.003,0 -0.005,-0.002 -0.005,-0.002l-0.005,-0.003c-0.002,0 -0.004,-0.002 -0.009,-0.002c-0.009,-0.005 -0.023,-0.007 -0.035,-0.009c-0.006,0 -0.013,-0.003 -0.02,-0.003l-0.007,0Zm-47.343,-0.002c0.009,0 0.016,0.002 0.023,0.002c0.007,0 0.016,0.003 0.023,0.003c0.007,0.002 0.014,0.004 0.019,0.004l-0.003,0c-0.007,-0.002 -0.011,-0.002 -0.016,-0.004c-0.007,0 -0.016,-0.003 -0.023,-0.003c-0.007,0 -0.011,0 -0.016,-0.002l-0.007,0Zm47.327,0c0.007,0 0.011,0.002 0.016,0.002c-0.003,0 -0.007,0 -0.009,-0.002l-0.007,0Zm-52.944,-0.24c0,0.21 0.208,0.212 0.21,0.005l0,-0.005l-0.21,0Zm46.755,-0.088l-0.243,0l0,0.21c0,0 0.243,0 0.243,-0.21Zm-0.485,0c-0.025,0 -0.224,0.012 0.002,0.21l0,-0.21l-0.002,0Zm-52.934,0.088l0.27,0c0,-0.272 0,-0.272 -0.27,-0.272l0,0.272Zm41.534,-0.3l0.243,0.27l0,-0.27l-0.243,-0.245l0,0.245Zm17.827,0.088l0.242,0l0,-0.27l-0.242,0l0,0.27Zm-47.085,-0.27l-0.24,0l0,0.27l0.24,0l0,-0.27Zm29.016,-0.3c-0.24,0 -0.24,0.237 -0.24,0.237l0.24,0l0,-0.237Zm11.402,-0.062c0.002,0 0.242,0.002 0.242,0.239l0,-0.239c0.24,-0.24 0.24,-0.24 0,-0.513c-0.242,0.273 0,0.273 0,0.513l-0.242,0Zm-52.182,0.087c0.21,0 0.21,0.275 0.21,0l-0.21,0Zm-5.704,-0.055c0.228,0 0.028,-0.189 0.002,-0.212l-0.002,-0.003l0,0.215Zm-5.852,-0.215c0,0 -0.21,0 -0.21,0.215l0.512,0c-0.284,0 -0.3,-0.189 -0.302,-0.212l0,-0.003Zm37.164,-0.027c-0.03,0 -0.093,0.06 -0.213,0.177l0.245,0c0,-0.117 0,-0.177 -0.03,-0.177l-0.002,0Zm-0.965,0.177l0,-0.237l-0.24,0c0,0 0,0.237 0.24,0.237Zm9.051,-0.15l0,-0.237c-0.273,0.237 -0.485,0 -0.485,0.237l0.485,0Zm13.547,-1.057c-0.246,0 -0.246,0.007 -0.246,0.247c0,0.24 0.272,0.48 0.272,0.753l0,-1l-0.026,0Zm-23.32,0.97l-0.242,-0.213l0,0.213l0.242,0Zm-12.397,-0.365l0.24,0.302l0.24,0l0,-0.302c0,0 0.303,-0.212 0,-0.482c0,0.27 0,0.27 -0.24,0.27l-0.24,0c-0.2,0 -0.025,0.187 -0.002,0.21l0.002,0.002Zm47.809,-0.457c0,0.245 -0.007,0.245 -0.242,0.245l-0.242,0c-0.196,0 -0.026,0.187 -0.003,0.21l0.003,0.002l0.242,0.302l0.242,0l0,-0.302c0,0 0.3,-0.212 0,-0.482l0,0.025Zm-18.068,0.672c0.242,0 0,0 0,-0.24l0,0.24Zm-8.538,0c0.212,0 0.482,0 0.212,-0.24l0.27,0c0,-0.007 0,-0.012 0.002,-0.019l-0.002,0.007c0,0.002 0,0.007 0,0.012c0,0 -0.27,-0.245 -0.27,0c-0.212,0 0,0 -0.212,-0.245l0,0.485Zm-7.087,-0.063c0.21,0 0.21,-0.27 0.21,-0.51c-0.21,0 -0.21,0.24 -0.21,0.51Zm50.433,-0.177l-0.27,0c0,0 0.27,0.27 0.27,0Zm-69.438,-0.245c-0.273,0 -0.483,0 -0.483,0.245l0.483,0l0,-0.245Zm26.583,0.164c0,0 0,0.002 0,0.004l0,-0.004c0,-0.003 0.002,-0.003 0.002,-0.005l-0.002,0.005Zm0.012,-0.033c-0.003,0.007 -0.005,0.014 -0.007,0.021c0,-0.007 0.002,-0.011 0.004,-0.018l0.003,-0.003Zm0.014,-0.032c-0.003,0.007 -0.007,0.014 -0.012,0.023c0.005,-0.009 0.009,-0.016 0.012,-0.023Zm0.002,-0.002l0.002,-0.002l-0.002,0.002Zm0.06,-0.06c-0.009,0.004 -0.016,0.009 -0.023,0.016l-0.003,0.002c-0.002,0.003 -0.002,0.003 -0.004,0.005c-0.002,0.002 -0.005,0.005 -0.007,0.007c-0.005,0.004 -0.009,0.011 -0.014,0.018l-0.002,0.003l-0.003,0.002l0.003,-0.002l0.002,-0.003c0.005,-0.007 0.009,-0.014 0.014,-0.018c0.002,-0.002 0.005,-0.005 0.007,-0.007c0.002,-0.002 0.002,-0.002 0.004,-0.005l0.003,-0.002c0.007,-0.005 0.014,-0.009 0.021,-0.014l0.002,-0.002Zm0.111,-0.037c-0.007,0 -0.014,0 -0.026,0.002l-0.002,0l-0.005,0.003c-0.007,0 -0.016,0.002 -0.025,0.006c-0.014,0.005 -0.03,0.012 -0.049,0.021c0.019,-0.009 0.035,-0.016 0.049,-0.021c0.009,-0.004 0.018,-0.006 0.025,-0.006l0.005,-0.003l0.002,0c0.009,0 0.016,-0.002 0.021,-0.002l0.005,0Zm-38.396,-0.302l-0.21,0l0.21,0.302l0,-0.302Zm75.082,-0.18l-0.242,0c0,0.272 0.242,0.272 0.242,0.272l0,-0.272Zm6.694,0l-0.27,0c0,0 0.27,0 0.27,0.272l0,-0.272Zm-23.89,-0.118c0.004,0.247 0.212,0.263 0.237,0.265l0.003,0c0,-0.27 -0.24,-0.27 -0.24,-0.27l0,0.005Zm-27.812,-0.215l-0.24,0c0.24,0 0.24,0.243 0.24,0.48l0,-0.48Zm-25.337,0.333c0,0 0.242,0.27 0.242,0c0.21,-0.27 0.483,-0.27 0.483,-0.485c-0.273,0 -0.725,0.215 -0.725,0.485Zm70.345,0c0,-0.243 0.242,-0.243 0.51,-0.485c0.242,0 0.242,0.242 0.242,0l-0.242,-0.27c-0.268,0.27 -0.268,0 -0.268,0c-0.242,0 -0.242,-0.242 -0.242,0l0.242,0l0,0.27c-0.242,0.242 -0.242,0.242 -0.242,0.485Zm-75.562,-0.27l0,0.237c0.27,0 0.27,-0.237 0.27,-0.237l-0.27,0Zm46.481,0c0.243,0.237 0.243,0 0.243,0l-0.243,0Zm-0.482,-0.243l0,0.243l0.24,0c0,-0.243 0,-0.243 -0.24,-0.243Zm-46.484,0c0.24,0 0.24,0.243 0.24,0.243l0,-0.243l-0.24,0Zm59.363,-0.122l-0.272,0l0,0.275l0.272,0l0,-0.275Zm-6.424,0c0,0.275 0,0.275 0.272,0.275l-0.272,-0.275Zm-47.507,0.15l0.27,0l0,-0.27c0,0.27 -0.27,0.27 -0.27,0.27Zm26.152,-0.088c0.21,-0.302 0.21,-0.514 0.21,-0.514l-0.21,0l0,0.514Zm-57.946,-0.812c-0.212,0.187 -0.365,0.323 -0.434,0.392c-0.238,0.224 -0.531,0.353 -0.808,0.353c-0.246,0 -0.452,-0.099 -0.613,-0.295c-0.439,-0.531 0.454,-1.777 0.957,-2.298l0.044,-0.056c1.212,-1.73 3.27,-4.236 4.048,-4.391c0.06,-0.014 0.12,-0.019 0.175,-0.019c0.21,0 0.397,0.086 0.556,0.254c0.263,0.275 0.42,0.734 0.402,1.166c-0.026,0.498 -0.794,1.751 -4.327,4.894Zm44.07,0.418l-0.452,0c0.212,0.272 0.212,0 0.452,0c0,0 -0.24,0 -0.24,0.272l0.24,0l0,-0.272Zm47.327,0c0,0 -0.242,0 -0.242,0.272l0.242,0l0,-0.272l-0.452,0c0.21,0.272 0.21,0 0.452,0Zm-26.364,0.212l0.212,0c-0.212,-0.242 -0.212,-0.242 -0.212,0Zm0.694,-0.242l-0.212,0l0,0.242c0,-0.242 0.21,-0.242 0.212,-0.242Zm-32.668,0l-0.27,0c0,0.242 0.27,0.242 0.27,0.242l0,-0.242Zm70.827,-0.213l-0.24,0l0,0.213l0.24,0l0,-0.213Zm-65.917,-0.03c-0.265,0.005 -0.265,0.243 -0.265,0.243l0.272,0l0,-0.243l-0.007,0Zm-6.175,0c0,0 0,0.243 0.27,0.243c0.242,0 0,-0.243 0,-0.243l-0.27,0c0,-0.242 0.27,-0.242 0,-0.242l0,0.242Zm24.643,-0.087l0,0.24l0.272,0c0,0 0,-0.24 -0.272,-0.24Zm-33.966,-0.12l-0.21,0c0,0 0,0.237 0.21,0.237l0,-0.237c0,0 0.243,0 0.243,-0.243c0,0 -0.243,0 -0.243,0.243Zm10.588,0.129l0,0.078c0,-0.02 0,-0.041 0,-0.062l0,-0.016Zm3.92,-0.164c0,0 -0.27,0 0,0.242l0.245,0c0,-0.242 -0.245,-0.242 -0.245,-0.242Zm30.227,-0.238c-0.235,0 -0.242,0.224 -0.242,0.457l0,0.023c0,-0.242 0.482,-0.242 0.242,-0.48l0.24,0c0,0 0,-0.237 -0.24,-0.237l0,0.237Zm-2.441,0.48c0,0 0.263,-0.237 0.005,-0.473l-0.005,-0.007l0,0.48Zm1.235,-0.242l0.21,0c0,0.242 0.27,0.242 0.27,0.242c0,0 0.212,-0.242 0,-0.242l-0.27,0c0,0 0,-0.238 -0.21,-0.238l0,0.238Zm-32.939,0.104c0,0.009 -0.002,0.018 -0.002,0.03c0,-0.009 0.002,-0.016 0.002,-0.025l0,-0.005Zm0.002,-0.018c0,0.004 0,0.006 -0.002,0.011l0.002,-0.007l0,-0.004Zm0.005,-0.021c-0.002,0.002 -0.002,0.007 -0.002,0.009l0,-0.005l0.002,-0.004Zm0,-0.005l0,0.002l0,-0.002l0.002,-0.002l-0.002,0.002Zm0.004,-0.011l0,0.002l0,-0.002Zm0.03,-0.03c-0.002,0 -0.002,0 -0.004,0c0,0.002 -0.002,0.002 -0.005,0.004c-0.007,0.005 -0.011,0.012 -0.016,0.019c0.005,-0.007 0.009,-0.014 0.016,-0.019c0.003,-0.002 0.005,-0.002 0.005,-0.004l0.004,0Zm-7.495,-0.494c-0.21,0.265 -0.002,0.267 0,0.503l0,0.007c0.273,-0.24 0.005,-0.243 0,-0.506l0,-0.004Zm-1.204,0.267c0,0 0.54,0.243 0.242,0c0,-0.267 -0.242,-0.267 -0.242,0c0,0 -0.245,0 -0.245,0.243c0.245,0 0.245,0 0.245,-0.243Zm20.424,0.026l-0.214,0l0.214,0.214l0,-0.214Zm47.112,0l0.21,0.214l0,-0.214l-0.21,0Zm-58.767,0.184l-0.007,0l-0.007,0c-0.009,0.003 -0.019,0.003 -0.028,0.005c-0.002,0.002 -0.007,0.002 -0.011,0.002c0,0.003 -0.003,0.003 -0.003,0.003l-0.002,0c-0.002,0.002 -0.005,0.002 -0.007,0.002c0,0.002 -0.002,0.002 -0.002,0.002l0.002,-0.002c0.002,0 0.005,0 0.007,-0.002l0.002,0c0,0 0.003,0 0.003,-0.003c0.004,0 0.009,0 0.011,-0.002c0.009,-0.002 0.019,-0.002 0.028,-0.005l0.014,0Zm0.02,0c-0.006,0 -0.013,0 -0.018,0l0.018,0Zm23.969,-0.12c0.224,0.254 0.238,0.033 0.24,0.003l0,-0.003c0,-0.212 0,-0.212 -0.24,-0.212l0,0.212Zm-23.945,0.118c-0.005,0.002 -0.012,0.002 -0.017,0.002l0.01,0l0.007,-0.002Zm0.016,0c0.011,0 0.025,0 0.039,0c-0.014,0 -0.028,0 -0.039,0Zm4.227,-0.27l0,0.27l0.245,-0.27l-0.245,0Zm48.506,-0.09c-0.24,0 0,0.242 0,0.242l0,-0.242Zm-0.512,0l0,0.242l0.272,0c0,-0.242 -0.272,-0.242 -0.272,-0.242Zm-41.383,-0.088c-0.24,0 -0.24,0 -0.24,0.266l0,-0.266l0.24,0Zm47.327,0l-0.242,0l0,0.266c0,-0.266 0,-0.266 0.242,-0.266Zm-67.444,-0.027c0,0 -0.277,0 -0.277,0.267l0.277,0l0,-0.267Zm44.76,0.237l0,-0.237c0,0 0,0.237 -0.274,0.237l0.274,0Zm-4.437,-0.237c-0.261,0.002 0.007,0.237 0.007,0.237l0,-0.237l-0.007,0Zm-0.988,0l-0.277,0c0.003,0 0.273,0 0.277,0.233l0,0.004l0,-0.237Zm-6.851,0.145c0.272,0 0.272,-0.24 0.272,-0.24c0,-0.242 -0.272,-0.242 -0.272,-0.242l0,0.482Zm-8.898,-0.36l-0.243,0.242l0.243,0l0,-0.242Zm47.329,0l-0.247,0.242l0.247,0l0,-0.242Zm-26.637,0.215l0,-0.247c-0.27,0 -0.27,0.247 -0.27,0.247l0.27,0Zm-43.586,-0.215l0,0.215l0.298,-0.215l-0.298,0Zm1.507,0l-0.27,0.215l0.27,0l0,-0.215Zm-4.645,0l0,0.215l0.512,0c-0.24,-0.215 -0.24,-0.215 -0.512,-0.215Zm13.995,-0.06l-0.272,0c0,0.272 0.272,0.272 0.272,0.272l0,-0.272Zm-3.713,0c-0.207,0.005 -0.205,0.272 0.005,0.272l0,-0.272l-0.005,0Zm41.782,0.03l0,0.242l0.242,0c-0.242,0 -0.242,0 -0.242,-0.242Zm29.59,-0.03l-0.242,0c0.242,0 0.242,0.272 0.242,0.272l0,-0.272Zm-38.611,0.028c-0.267,-0.268 -0.267,-0.268 -0.267,0c0.267,0.247 0.267,0.247 0.267,0Zm-2.019,0l-0.212,0c0,0.002 0,0.244 0.212,0Zm2.502,0c0,-0.268 -0.268,-0.51 -0.268,-0.51l0,0.51l0.268,0Zm1.172,-0.51c-0.205,0.002 -0.205,0.242 -0.205,0.242c0,0.268 -0.273,0 -0.273,0.268c0,0 0.268,0 0.273,-0.261l0,-0.007c0.21,0 0.21,0 0.21,-0.242l-0.005,0Zm-30.467,0.27c-0.236,0.002 -0.236,0.21 0,0.212l0.007,0l0,-0.212l-0.007,0Zm71.614,0.212c0,-0.226 -0.213,-0.24 -0.238,-0.24l-0.002,0l0.24,0.24Zm0.514,0c0,-0.24 0.243,-0.24 0,-0.24l0,0.24Zm-3.228,0l0,-0.514c-0.24,0 -0.24,0.274 -0.24,0.274l0,0.24l0.24,0Zm-47.477,-0.332l-0.212,0l0,0.27c0.212,0 0.212,0 0.212,-0.27Zm29.106,-0.032l-0.302,0l0,0.214l0.302,-0.214Zm-0.856,0.039c-0.196,0.175 -0.182,0.175 0.042,0.175l0,-0.214l-0.042,0.039Zm-6.593,0.175l0.243,0c-0.243,0 -0.243,0 -0.243,-0.214l0,0.214Zm-44.553,-0.33c0.003,0.03 0.017,0.268 0.24,0.268l-0.24,-0.27l0,0.002Zm-1.206,0.268c-0.27,-0.27 -0.27,-0.27 -0.543,0l0.543,0Zm-8.116,-0.24c0,-0.242 -0.298,0 -0.298,0c0,0 -0.242,0 0,0.24l0.512,0c0,-0.226 -0.187,-0.24 -0.212,-0.24l-0.002,0Zm21.084,-0.023c-0.235,0.261 0.005,0.261 0.005,0.261l0,-0.268l-0.005,0.007Zm47.322,0c-0.228,0.261 0.005,0.261 0.005,0.261l0,-0.268l-0.005,0.007Zm-49.279,0.261c0.24,0 0.24,-0.268 0.24,-0.268l-0.24,0.268Zm47.327,0c0.242,0 0.242,-0.268 0.242,-0.268l-0.242,0.268Zm-26.152,-0.268l-0.212,0l0,0.242c0.212,0 0.212,0 0.212,-0.242Zm-1.235,0.242c0.273,0 0.273,0 0.273,-0.242c-0.273,0 -0.273,0 -0.273,0.242Zm42.105,0l0.007,0c0.263,-0.004 -0.005,-0.274 -0.007,-0.274l0,0.274Zm-56.857,-0.242l-0.242,0c0.002,0.002 0.242,0.268 0.242,0Zm47.084,0c0,0 0.24,0.268 0.24,0l-0.24,0Zm-49.558,0c-0.242,0 -0.242,0 -0.484,-0.242c0,0.242 0,0.51 0.242,0.242l0.242,0Zm47.329,0c-0.242,0 -0.242,0 -0.485,-0.242c0,0.242 0,0.51 0.243,0.242l0.242,0Zm-15.052,-0.122l-0.543,0c0.3,0.24 0.3,0.24 0.543,0Zm-56.347,0.152c0,0 -0.243,0 -0.243,-0.242l-0.21,0.242l0.453,0Zm0.542,-0.242l0,0.242c0.18,0 0.18,0 0.18,-0.242l-0.18,0Zm21.571,-0.03c0,0.242 0,0.242 0.24,0.242c-0.113,0 -0.12,-0.053 -0.12,-0.111l0,-0.023c0,-0.055 -0.007,-0.108 -0.115,-0.108l-0.005,0Zm47.322,0.02c0,0.222 0.009,0.222 0.243,0.222c-0.24,0 -0.003,-0.24 -0.236,-0.242l-0.007,0l0,0.02Zm-58.878,-0.02l0.272,0.242c0.212,-0.242 0,-0.242 0,-0.242c0,-0.24 -0.272,-0.24 -0.272,-0.24l0,0.24Zm29.533,0l0,0.242l0.207,0c0,-0.242 0,-0.242 -0.207,-0.242Zm5.635,0c-0.208,0 -0.208,0 -0.208,0.242l0.208,0l0,-0.242Zm37.676,-0.033l-0.24,0l0,0.243l0.24,-0.243Zm0.514,0l-0.24,0l0,0.243l0.24,-0.243Zm-110.169,-0.034c-0.348,-0.34 -0.438,-1.099 0.464,-2.123c0.558,-0.635 1.147,-1.041 1.664,-1.399c0.867,-0.604 1.687,-1.177 1.313,-2.411c0.11,-0.425 0.567,-1.994 1.467,-2.746c0.217,-0.185 0.351,-0.157 0.464,-0.099c0.499,0.251 0.93,1.366 0.898,1.869c-0.035,0.533 -0.632,1.405 -1.156,2.037l-0.005,-0.004c-0.06,0.069 -0.148,0.175 -0.249,0.295c-0.037,0.039 -0.074,0.085 -0.109,0.12l0.005,0.005c-1.038,1.239 -3.48,4.181 -3.727,4.479c-0.341,0.302 -0.784,0.217 -1.029,-0.023Zm108.693,0.034l-0.245,0c0.242,0.243 0.245,0 0.245,0Zm-9.535,0.033l0.21,0l0,-0.213l-0.21,0l0,0.213Zm-47.117,-0.213l-0.208,0l0,0.213l0.208,0l0,-0.213Zm46.367,0l0,0.213l0.237,0c0,0 0,-0.213 -0.237,-0.213Zm-47.329,0l0,0.213l0.237,0c0,0 0,-0.213 -0.237,-0.213Zm-8.063,-11.826c-0.591,0.743 -1.244,1.403 -1.955,1.975c-1.384,1.124 -2.9,1.685 -4.557,1.685c-1.751,0 -3.081,-0.591 -3.99,-1.779c-0.911,-1.189 -1.364,-2.613 -1.364,-4.283c0,-2.112 0.517,-4.242 1.546,-6.39c1.034,-2.148 2.363,-3.909 3.993,-5.287c1.629,-1.373 3.265,-2.067 4.901,-2.067c1.703,0 2.557,0.754 2.557,2.263c0,1.066 -0.328,2.216 -0.983,3.459c-0.656,1.244 -1.334,1.865 -2.04,1.865c-0.409,0 -0.746,-0.254 -1.004,-0.764c0.618,-0.683 1.221,-1.5 1.8,-2.453c0.584,-0.946 0.874,-1.717 0.874,-2.305c0,-0.637 -0.366,-0.958 -1.105,-0.958c-1.144,0 -2.367,0.697 -3.662,2.091c-1.292,1.387 -2.365,3.099 -3.217,5.125c-0.851,2.026 -1.276,3.909 -1.276,5.642c0,1.309 0.295,2.416 0.884,3.314c0.588,0.9 1.481,1.35 2.677,1.35c1.28,0 2.559,-0.517 3.844,-1.549c0.923,-0.738 1.694,-1.585 2.31,-2.536c0.155,-0.528 0.388,-1.052 0.699,-1.569c0.623,-1.029 1.295,-1.546 2.015,-1.546c0.196,0 0.45,0.067 0.761,0.203c0.095,-0.761 0.363,-1.394 0.79,-1.887c0.426,-0.501 1.029,-0.748 1.804,-0.748c0.695,0 1.207,0.187 1.535,0.561c0.33,0.374 0.489,0.858 0.489,1.458c0,1.135 -0.575,2.532 -1.724,4.195c0.201,0.1 0.436,0.148 0.704,0.148c0.457,0 0.951,-0.152 1.474,-0.455c0.351,-0.203 0.644,-0.48 0.884,-0.823c0.132,-0.52 0.316,-1.08 0.554,-1.683c0.542,-1.37 1.015,-2.049 1.426,-2.049c0.344,0 0.729,0.21 1.156,0.637c-0.346,0.51 -0.701,1.235 -1.068,2.183c-0.369,0.953 -0.554,1.772 -0.554,2.462c0,0.979 0.245,1.473 0.738,1.473c0.425,0 0.949,-0.404 1.57,-1.214c0.623,-0.815 1.151,-1.636 1.587,-2.472c0.434,-0.837 0.833,-1.652 1.191,-2.457c0.9,0.164 1.35,0.447 1.35,0.835c0,0.035 -0.12,0.342 -0.36,0.921c-0.24,0.581 -0.48,1.248 -0.711,2.003c-0.235,0.757 -0.353,1.361 -0.353,1.82c0,0.554 0.215,0.831 0.639,0.831l0.023,0c0.54,0 1.207,-0.36 2.003,-1.091c0.61,-0.559 1.154,-1.244 1.632,-2.059c0.217,-1.393 0.454,-3.11 0.713,-5.153c0.016,-0.163 0.039,-0.274 0.062,-0.33c0.026,-0.06 0.076,-0.11 0.159,-0.159c0.086,-0.051 0.21,-0.076 0.374,-0.076c0.483,0 0.849,0.134 1.096,0.406c0.25,0.27 0.374,0.596 0.374,0.979c0,0.38 -0.115,1.123 -0.351,2.231c1.21,-1.786 2.541,-2.679 3.988,-2.679c0.812,0 1.479,0.252 2.008,0.762c0.528,0.507 0.791,1.197 0.791,2.067c0,0.87 -0.242,1.775 -0.724,2.718c-0.483,0.94 -1.198,1.752 -2.149,2.44c-0.951,0.685 -1.984,1.029 -3.094,1.029c-0.508,0 -0.921,-0.065 -1.244,-0.192c-0.319,-0.127 -0.478,-0.272 -0.478,-0.429c0,-0.159 0.196,-0.24 0.586,-0.24c1.452,-0.032 2.673,-0.579 3.66,-1.641c0.986,-1.059 1.477,-2.19 1.477,-3.387c0,-0.529 -0.111,-0.962 -0.339,-1.309c-0.231,-0.346 -0.568,-0.519 -1.025,-0.519c-0.757,0 -1.518,0.422 -2.291,1.26c-0.769,0.84 -1.343,1.685 -1.717,2.538c-0.233,0.806 -0.485,1.768 -0.764,2.885l-0.667,2.778c-0.177,0.736 -0.383,1.468 -0.602,2.188c-0.224,0.72 -0.452,1.262 -0.688,1.62c-0.237,0.362 -0.484,0.54 -0.75,0.54c-0.196,0 -0.404,-0.076 -0.625,-0.224c-0.224,-0.145 -0.339,-0.277 -0.355,-0.39c1.013,-2.947 1.696,-5.192 2.035,-6.731c0.099,-0.441 0.203,-0.979 0.314,-1.613c-0.381,0.544 -0.813,1.038 -1.295,1.477c-0.983,0.893 -1.931,1.338 -2.845,1.338c-0.316,0 -0.584,-0.065 -0.805,-0.185c-0.22,-0.12 -0.393,-0.263 -0.501,-0.431c-0.116,-0.162 -0.206,-0.379 -0.272,-0.662c-0.065,-0.275 -0.102,-0.517 -0.111,-0.711c-0.007,-0.196 -0.012,-0.452 -0.012,-0.762c-0.362,0.556 -0.671,1.004 -0.934,1.336c-0.261,0.34 -0.593,0.656 -1.006,0.96c-0.411,0.305 -0.801,0.455 -1.177,0.455c-0.543,0 -0.995,-0.256 -1.353,-0.759c-0.36,-0.51 -0.54,-1.106 -0.54,-1.795c0,-0.183 0.01,-0.374 0.03,-0.57c-0.127,0.12 -0.26,0.228 -0.403,0.327c-0.584,0.409 -1.184,0.612 -1.812,0.612c-0.383,0 -0.796,-0.074 -1.244,-0.215c-1.345,1.634 -2.704,2.451 -4.063,2.451c-0.693,0 -1.182,-0.222 -1.477,-0.667c-0.293,-0.439 -0.441,-0.988 -0.441,-1.643Zm60.556,-2.082c0.538,-1.61 1.14,-3.223 1.807,-4.841c1.024,-2.467 2.192,-4.624 3.503,-6.473c1.313,-1.846 2.49,-2.771 3.537,-2.771c0.688,0 1.032,0.415 1.032,1.253c0,1.361 -0.683,2.942 -2.049,4.742c-1.366,1.802 -2.922,3.277 -4.657,4.424l-0.392,0.98c0.341,0.15 0.549,0.434 0.611,0.861c0.12,0.674 0.21,1.172 0.284,1.498c0.076,0.33 0.192,0.69 0.36,1.084c0.159,0.39 0.367,0.665 0.609,0.817c0.245,0.159 0.552,0.236 0.912,0.236c0.537,0 1.027,-0.197 1.46,-0.589c0.432,-0.394 0.905,-1.008 1.413,-1.841l0.54,0.394c-0.49,0.995 -1.062,1.752 -1.706,2.259c-0.648,0.508 -1.255,0.762 -1.83,0.762c-0.558,0 -1.14,-0.222 -1.746,-0.665c-0.017,1.327 -0.215,2.638 -0.589,3.932c-0.378,1.293 -0.874,2.357 -1.486,3.183c-0.614,0.823 -1.239,1.239 -1.881,1.239c-0.39,0 -0.754,-0.176 -1.091,-0.524c-0.335,-0.353 -0.506,-0.976 -0.506,-1.876c0,-1.244 0.358,-3.092 1.069,-5.543c0.111,-0.378 0.224,-0.757 0.341,-1.135c-0.06,0.048 -0.12,0.094 -0.182,0.138c-0.581,0.409 -1.191,0.612 -1.814,0.612c-0.383,0 -0.798,-0.074 -1.246,-0.215c-1.345,1.634 -2.7,2.451 -4.063,2.451c-0.69,0 -1.18,-0.222 -1.473,-0.667c-0.297,-0.439 -0.44,-0.988 -0.44,-1.643c0,-1.082 0.306,-2.137 0.93,-3.171c0.623,-1.029 1.294,-1.546 2.016,-1.546c0.197,0 0.448,0.067 0.757,0.203c0.099,-0.761 0.36,-1.394 0.792,-1.887c0.429,-0.501 1.029,-0.748 1.807,-0.748c0.69,0 1.204,0.187 1.53,0.561c0.327,0.374 0.493,0.858 0.493,1.458c0,1.135 -0.577,2.532 -1.723,4.195c0.2,0.1 0.433,0.148 0.701,0.148c0.457,0 0.946,-0.152 1.472,-0.455c0.356,-0.207 0.656,-0.487 0.898,-0.84Zm0.422,8.91c0.441,0 0.928,-0.819 1.463,-2.462c0.529,-1.643 0.796,-3.083 0.796,-4.318c0,-0.817 -0.24,-1.657 -0.71,-2.503c-1.297,3.777 -1.943,6.519 -1.943,8.212c0,0.713 0.134,1.071 0.394,1.071Zm-103.98,-1.608c-0.353,-0.321 -0.619,-1.302 -1.445,-4.719c-1.029,-4.258 -2.753,-11.384 -4.52,-12.33c-0.166,-0.09 -0.309,-0.104 -0.464,-0.048c-0.166,0.062 -0.295,0.2 -0.392,0.424c-1.154,2.663 2.886,13.384 4.696,17.674c0.793,-0.441 1.502,-0.773 2.125,-1.001Zm2.744,-0.12c0.104,-0.517 0.346,-1.433 0.662,-2.626c1.154,-4.357 3.554,-13.421 2.185,-15.669c-0.134,-0.219 -0.288,-0.341 -0.489,-0.385c-0.288,-0.065 -0.54,-0.007 -0.791,0.18c-1.969,1.46 -2.555,9.26 -2.903,13.921c-0.208,2.756 -0.31,3.919 -0.515,4.431c0.632,-0.141 1.154,-0.136 1.567,0.012c0.101,0.036 0.196,0.083 0.284,0.136Zm76.307,-4.971c-0.26,0.332 -0.53,0.632 -0.807,0.898c-0.866,0.819 -1.761,1.232 -2.691,1.232c-1.394,0 -2.091,-0.858 -2.091,-2.584c0,-1.507 0.522,-3.552 1.565,-6.136c1.038,-2.583 2.19,-4.846 3.45,-6.792c1.262,-1.943 2.194,-2.914 2.803,-2.914c0.277,0 0.51,0.219 0.709,0.653c0.198,0.434 0.304,0.872 0.318,1.318c0,0.754 -0.279,1.823 -0.842,3.209c-0.563,1.387 -1.375,2.857 -2.437,4.417c-1.061,1.558 -2.171,2.797 -3.327,3.713c-0.183,0.972 -0.27,1.715 -0.27,2.238l0,0.077c0,1.13 0.35,1.696 1.052,1.696c0.568,0 1.177,-0.381 1.823,-1.143c0.263,-0.311 0.515,-0.65 0.755,-1.017c0.168,-1.286 0.846,-2.601 2.03,-3.953c1.385,-1.576 2.816,-2.363 4.29,-2.363c1.212,0 1.816,0.542 1.816,1.622c0,1.177 -0.641,2.229 -1.931,3.143c-1.286,0.921 -2.721,1.458 -4.309,1.622c-0.034,0.166 -0.048,0.353 -0.048,0.568c0,0.164 0.011,0.318 0.039,0.466c0.023,0.148 0.088,0.346 0.196,0.602c0.106,0.254 0.303,0.46 0.593,0.612c0.291,0.157 0.644,0.231 1.073,0.231c1,0 2.017,-0.404 3.058,-1.212c1.038,-0.812 1.881,-1.823 2.518,-3.034l0.496,0.394c-0.658,1.466 -1.595,2.647 -2.818,3.545c-1.221,0.893 -2.485,1.34 -3.796,1.34c-1.027,0 -1.825,-0.274 -2.397,-0.83c-0.455,-0.441 -0.727,-0.981 -0.82,-1.618Zm-34.085,-0.201c0,0.753 0.277,1.129 0.835,1.129c0.579,0 1.348,-0.577 2.31,-1.724c-0.905,-0.822 -1.378,-2.031 -1.424,-3.623c-0.311,0.162 -0.676,0.729 -1.098,1.705c-0.413,0.972 -0.623,1.812 -0.623,2.513Zm50.88,0c0,0.753 0.279,1.129 0.838,1.129c0.574,0 1.347,-0.577 2.305,-1.724c-0.9,-0.822 -1.378,-2.031 -1.422,-3.623c-0.311,0.162 -0.678,0.729 -1.096,1.705c-0.417,0.972 -0.625,1.812 -0.625,2.513Zm-47.809,-3.8c0,0.38 0.067,0.81 0.203,1.294c0.129,0.487 0.3,0.861 0.519,1.124c0.96,-1.364 1.443,-2.589 1.443,-3.676c0,-0.722 -0.233,-1.084 -0.699,-1.084c-0.347,0 -0.677,0.228 -0.993,0.687c-0.318,0.464 -0.473,1.013 -0.473,1.655Zm50.883,0c0,0.38 0.062,0.81 0.198,1.294c0.132,0.487 0.305,0.861 0.519,1.124c0.963,-1.364 1.443,-2.589 1.443,-3.676c0,-0.722 -0.233,-1.084 -0.697,-1.084c-0.349,0 -0.676,0.228 -0.993,0.687c-0.316,0.464 -0.47,1.013 -0.47,1.655Zm-17.688,2.03c0.953,-0.113 1.957,-0.59 3.023,-1.426c1.061,-0.833 1.592,-1.687 1.592,-2.554c0,-0.312 -0.141,-0.466 -0.42,-0.466c-0.727,0 -1.511,0.473 -2.372,1.423c-0.856,0.951 -1.461,1.96 -1.823,3.023Zm-5.095,-2.538c1.308,-1.428 2.474,-3.154 3.5,-5.183c1.027,-2.024 1.544,-3.477 1.544,-4.366c-0.212,0 -0.63,0.478 -1.248,1.426c-0.621,0.953 -1.297,2.195 -2.033,3.729c-0.734,1.533 -1.32,3 -1.763,4.394Zm31.307,-3.09c1.394,-1.294 2.527,-2.577 3.401,-3.856c0.877,-1.278 1.316,-2.162 1.316,-2.654c0,-0.131 -0.065,-0.2 -0.196,-0.2c-0.573,0 -1.265,0.62 -2.066,1.857c-0.803,1.242 -1.622,2.857 -2.455,4.853Zm-121.269,-5.46c0,0 0.145,-0.535 0.501,-1.287c0.173,-0.379 0.411,-0.803 0.685,-1.246c0.143,-0.217 0.289,-0.443 0.45,-0.665c0.171,-0.215 0.328,-0.443 0.515,-0.651c0.182,-0.212 0.364,-0.42 0.561,-0.613c0.186,-0.201 0.387,-0.381 0.588,-0.55c0.099,-0.085 0.196,-0.168 0.291,-0.251c0.101,-0.074 0.2,-0.146 0.297,-0.217c0.194,-0.143 0.377,-0.275 0.559,-0.376c0.18,-0.109 0.344,-0.203 0.491,-0.284c0.155,-0.072 0.289,-0.134 0.4,-0.185c0.219,-0.099 0.346,-0.152 0.346,-0.152c0,0 -0.113,0.083 -0.312,0.217c-0.099,0.065 -0.221,0.145 -0.36,0.238c-0.131,0.101 -0.279,0.216 -0.443,0.341c-0.166,0.118 -0.33,0.268 -0.505,0.42c-0.09,0.076 -0.18,0.152 -0.273,0.233c-0.087,0.086 -0.177,0.171 -0.27,0.259c-0.092,0.09 -0.184,0.177 -0.279,0.267c-0.087,0.097 -0.18,0.194 -0.27,0.291c-0.187,0.189 -0.362,0.397 -0.535,0.602c-0.185,0.201 -0.344,0.423 -0.512,0.628c-0.157,0.215 -0.314,0.427 -0.466,0.63c-0.141,0.215 -0.291,0.411 -0.414,0.609c-0.129,0.196 -0.249,0.381 -0.357,0.556c-0.215,0.349 -0.393,0.642 -0.506,0.854c-0.115,0.212 -0.182,0.332 -0.182,0.332Zm2.379,-0.886c0,0 0.065,-0.344 0.277,-0.821c0.099,-0.24 0.242,-0.51 0.411,-0.789c0.168,-0.28 0.374,-0.563 0.598,-0.833c0.23,-0.264 0.47,-0.52 0.729,-0.725c0.122,-0.108 0.249,-0.203 0.376,-0.286c0.122,-0.088 0.24,-0.166 0.358,-0.226c0.226,-0.134 0.424,-0.222 0.57,-0.273c0.14,-0.05 0.223,-0.08 0.223,-0.08c0,0 -0.069,0.053 -0.189,0.147c-0.06,0.044 -0.131,0.097 -0.217,0.16c-0.078,0.066 -0.168,0.14 -0.265,0.221c-0.102,0.076 -0.199,0.173 -0.307,0.27c-0.108,0.092 -0.217,0.198 -0.328,0.312c-0.115,0.106 -0.224,0.226 -0.334,0.348c-0.116,0.118 -0.224,0.245 -0.33,0.374c-0.222,0.251 -0.423,0.521 -0.612,0.773c-0.184,0.256 -0.355,0.496 -0.496,0.708c-0.281,0.425 -0.464,0.72 -0.464,0.72Z" style="fill:#3c3c3c;"/></g></svg>